<?xml version="1.0" encoding="utf-8"?>
<!-- Generator: Adobe Illustrator 23.0.0, SVG Export Plug-In . SVG Version: 6.00 Build 0)  -->
<svg version="1.1" id="Layer_1" xmlns="http://www.w3.org/2000/svg" xmlns:xlink="http://www.w3.org/1999/xlink" x="0px" y="0px"
	 width="414.5px" height="415.7px" viewBox="0 0 414.5 415.7" style="enable-background:new 0 0 414.5 415.7;" xml:space="preserve"
	>
<style type="text/css">
	.st0{fill:none;stroke:#FFFFFF;stroke-width:2;stroke-miterlimit:10;}
	.st1{fill:#929497;}
	.st2{enable-background:new    ;}
	.st3{fill:#FFFFFF;}
	.st4{fill:#F05A30;}
	.st5{fill:none;stroke:#FFFFFF;stroke-width:3;stroke-miterlimit:10;}
	.st6{opacity:0.68;fill:#FFFFFF;enable-background:new    ;}
	.st7{fill:#EE4056;}
	.st8{fill:none;stroke:#FFFFFF;stroke-width:3;stroke-linecap:round;stroke-miterlimit:10;}
	.st9{fill:#90278E;}
	.st10{fill:#652D90;}
	.st11{fill:#F89C1C;}
</style>
<path class="st0" d="M213.3,382.2c0,2.4-2,4.4-4.4,4.4s-4.4-2-4.4-4.4s2-4.4,4.4-4.4l0,0C211.3,377.8,213.3,379.8,213.3,382.2
	L213.3,382.2z"/>
<circle class="st1" cx="205.7" cy="206.7" r="76.8"/>
<g class="st2">
	<path class="st3" d="M184.8,172.8c0,1.4-0.5,2.5-1.5,3.3s-2.3,1.2-3.9,1.2c-1.3,0-2.5-0.3-3.6-1c-0.6-0.4-1.1-0.9-1.4-1.5
		s-0.6-1.4-0.6-2.2l2.6-0.1c0,0.7,0.3,1.3,1,1.7c0.6,0.4,1.3,0.6,2.1,0.6c1.7,0,2.6-0.6,2.6-1.8c0-1-0.6-1.6-1.8-1.8l-2.4-0.2
		c-1.2-0.2-2.2-0.6-2.9-1.3s-1.1-1.6-1.1-2.9c0-1.3,0.5-2.3,1.5-3.1s2.3-1.2,3.8-1.2s2.8,0.4,3.7,1.2s1.4,1.8,1.4,3l-2.6,0.1
		c-0.2-1.2-1-1.8-2.4-1.8c-0.8,0-1.5,0.2-2,0.5s-0.7,0.8-0.7,1.3s0.2,0.9,0.5,1.2s0.8,0.5,1.3,0.5l2.4,0.2
		C183.5,168.9,184.8,170.3,184.8,172.8z"/>
	<path class="st3" d="M195.8,171.8h-6.9c0,1.1,0.2,1.9,0.5,2.4s1,0.7,2,0.7c0.7,0,1.2-0.2,1.5-0.6s0.5-0.8,0.5-1.2h2.4
		c0,1.5-0.4,2.6-1.2,3.2c-0.8,0.7-1.8,1-3.1,1s-2.3-0.2-3-0.6c-1.5-0.8-2.2-2.8-2.2-6c0-1.9,0.4-3.4,1.3-4.3
		c0.8-0.9,2.1-1.4,3.8-1.4c3,0,4.5,1.7,4.5,5C195.8,170.5,195.8,171.1,195.8,171.8z M189,170h4.4c0-0.9-0.2-1.6-0.5-2
		s-0.9-0.6-1.6-0.6s-1.3,0.2-1.7,0.6S189,169.1,189,170z"/>
	<path class="st3" d="M200.8,177.1h-2.7v-15.6h2.7V177.1z"/>
	<path class="st3" d="M212.6,171.8h-6.9c0,1.1,0.2,1.9,0.5,2.4s1,0.7,2,0.7c0.7,0,1.2-0.2,1.5-0.6s0.5-0.8,0.5-1.2h2.4
		c0,1.5-0.4,2.6-1.2,3.2c-0.8,0.7-1.8,1-3.1,1s-2.3-0.2-3-0.6c-1.5-0.8-2.2-2.8-2.2-6c0-1.9,0.4-3.4,1.3-4.3
		c0.8-0.9,2.1-1.4,3.8-1.4c3,0,4.5,1.7,4.5,5C212.6,170.5,212.6,171.1,212.6,171.8z M205.8,170h4.4c0-0.9-0.2-1.6-0.5-2
		s-0.9-0.6-1.6-0.6s-1.3,0.2-1.7,0.6S205.8,169.1,205.8,170z"/>
	<path class="st3" d="M221.1,172.8h2.4c0,0.1,0,0.3,0,0.6s0,0.5,0,0.6s0,0.3-0.1,0.5c0,0.2-0.1,0.4-0.1,0.5s-0.1,0.2-0.1,0.4
		c-0.2,0.7-0.9,1.3-2,1.7c-0.7,0.2-1.4,0.4-2.2,0.4s-1.5-0.1-2.1-0.4c-0.6-0.2-1.1-0.6-1.5-1c-0.8-0.9-1.2-2.5-1.2-4.8
		c0-2.4,0.4-4,1.2-4.8c0.4-0.4,0.8-0.7,1.5-1s1.3-0.4,2.1-0.4c1.5,0,2.6,0.4,3.4,1.1c0.8,0.7,1.2,1.8,1.2,3.1h-2.4
		c0-0.6-0.2-1.1-0.5-1.4c-0.3-0.3-0.9-0.4-1.7-0.4s-1.4,0.3-1.6,0.8c-0.3,0.5-0.4,1.3-0.4,2.3v1.1c0,1.6,0.3,2.6,1,3
		c0.3,0.2,0.7,0.3,1.1,0.3c0.5,0,0.9,0,1.1-0.1c0.3-0.1,0.5-0.2,0.6-0.5c0.1-0.2,0.2-0.4,0.3-0.7
		C221.1,173.5,221.1,173.2,221.1,172.8z"/>
	<path class="st3" d="M230.9,177.1h-1.7c-1,0-1.8-0.3-2.3-0.9c-0.5-0.6-0.8-1.3-0.8-2.2v-6.2H225v-2h1.1v-2.3h2.7v2.3h1.9v2h-1.9v6
		c0,0.6,0.3,1,0.9,1h1.2L230.9,177.1L230.9,177.1z"/>
	<path class="st3" d="M155.7,201.9h-5.2c-1.7,0-2.8-0.3-3.5-0.9c-0.7-0.6-1-1.6-1-3v-10.8h9.7v2.6h-6.8v3.5h4.8l-0.2,2.6h-4.6v2
		c0,0.6,0.1,1,0.4,1.2c0.3,0.2,0.7,0.3,1.4,0.3h5L155.7,201.9L155.7,201.9z"/>
	<path class="st3" d="M166.4,201.9h-1.8l-0.8-1.4l-2.9,1.6c-1.6,0-2.7-0.6-3.2-1.7c-0.3-0.6-0.5-1.2-0.6-1.8c-0.1-0.7-0.2-1.3-0.2-2
		s0-1.2,0-1.6s0-0.7,0.1-1.2c0.1-0.4,0.1-0.8,0.2-1.1c0.1-0.3,0.3-0.6,0.4-0.9c0.2-0.3,0.4-0.6,0.7-0.8c0.6-0.4,1.4-0.6,2.4-0.6h2.8
		l2.7-0.2v11.7H166.4z M163.8,198.2v-5.5h-2c-0.8,0-1.3,0.3-1.6,0.9c-0.3,0.6-0.4,1.4-0.4,2.6c0,1.2,0.1,2,0.4,2.4
		c0.3,0.5,0.8,0.7,1.6,0.7L163.8,198.2z"/>
	<path class="st3" d="M177.5,198.7v0.3c-0.1,1-0.5,1.8-1.3,2.3s-1.8,0.8-3,0.8c-1.8,0-3-0.3-3.7-1c-0.6-0.6-1-1.4-1-2.6v-0.2h2.4
		c0,0.6,0.2,1.1,0.5,1.3s0.9,0.4,1.7,0.4c1.1,0,1.7-0.4,1.7-1.2c0-0.7-0.2-1.1-0.6-1.3c-0.2-0.1-0.4-0.2-0.7-0.2l-2.1-0.4
		c-1.8-0.3-2.7-1.4-2.7-3.4c0-1.1,0.4-2,1.2-2.6s1.8-0.9,3.1-0.9c2.8,0,4.2,1.2,4.2,3.7v0.3h-2.3c0-0.6-0.2-1.1-0.5-1.3
		s-0.8-0.4-1.3-0.4c-0.6,0-1,0.1-1.3,0.3s-0.4,0.5-0.4,0.8c0,0.8,0.3,1.2,1,1.3l2.5,0.5C176.6,195.4,177.5,196.6,177.5,198.7z"/>
	<path class="st3" d="M188.8,201.9h-2.7v-7.4c0-1.3-0.5-1.9-1.5-1.9l-2.6,1v8.3h-2.7v-15.5h2.7v5.1l3.4-1.5c1.2,0,2.1,0.3,2.6,1
		s0.8,1.7,0.8,2.9V201.9z"/>
	<path class="st3" d="M206.4,197.6c0,1.4-0.5,2.5-1.5,3.3s-2.3,1.2-3.9,1.2c-1.3,0-2.5-0.3-3.6-1c-0.6-0.4-1.1-0.9-1.4-1.5
		c-0.4-0.7-0.6-1.4-0.6-2.2l2.6-0.1c0,0.7,0.3,1.3,1,1.7c0.6,0.4,1.3,0.6,2.1,0.6c1.7,0,2.6-0.6,2.6-1.8c0-1-0.6-1.6-1.8-1.8
		l-2.4-0.2c-1.2-0.2-2.2-0.6-2.9-1.3s-1.1-1.6-1.1-2.9c0-1.3,0.5-2.3,1.5-3.1s2.3-1.2,3.8-1.2s2.8,0.4,3.7,1.2s1.4,1.8,1.4,3
		l-2.6,0.1c-0.2-1.2-1-1.8-2.4-1.8c-0.8,0-1.5,0.2-2,0.5s-0.7,0.8-0.7,1.3s0.2,0.9,0.5,1.2s0.8,0.5,1.3,0.5l2.4,0.2
		C205.1,193.7,206.4,195.1,206.4,197.6z"/>
	<path class="st3" d="M213.5,201.9h-1.7c-1,0-1.8-0.3-2.3-0.9c-0.5-0.6-0.8-1.3-0.8-2.2v-6.2h-1.1v-2h1.1v-2.3h2.7v2.3h1.9v2h-1.9v6
		c0,0.6,0.3,1,0.9,1h1.2L213.5,201.9L213.5,201.9z"/>
	<path class="st3" d="M224.6,196.7h-6.9c0,1.1,0.2,1.9,0.5,2.4s1,0.7,2,0.7c0.7,0,1.2-0.2,1.5-0.6s0.5-0.8,0.5-1.2h2.4
		c0,1.5-0.4,2.6-1.2,3.2s-1.8,1-3.1,1s-2.3-0.2-3-0.6c-1.5-0.8-2.2-2.8-2.2-6c0-1.9,0.4-3.4,1.3-4.3c0.8-0.9,2.1-1.4,3.8-1.4
		c3,0,4.5,1.7,4.5,5C224.7,195.3,224.7,195.9,224.6,196.7z M217.8,194.8h4.4c0-0.9-0.2-1.6-0.5-2s-0.9-0.6-1.6-0.6s-1.3,0.2-1.7,0.6
		C218,193.3,217.8,193.9,217.8,194.8z"/>
	<path class="st3" d="M236.5,195.7c0,3.1-0.8,5-2.4,5.9c-0.6,0.3-1.4,0.5-2.4,0.5l-2-1.3v4.6H227v-15.2h5.3c1.6,0,2.7,0.5,3.3,1.4
		S236.5,193.8,236.5,195.7z M233.8,196.1c0-2.3-0.7-3.5-2.2-3.5h-1.8v5.5l1.8,1.2c0.8,0,1.4-0.3,1.7-0.8S233.8,197.2,233.8,196.1z"
		/>
	<path class="st3" d="M248.5,201.9h-1.7c-1,0-1.8-0.3-2.3-0.9c-0.5-0.6-0.8-1.3-0.8-2.2v-6.2h-1.1v-2h1.1v-2.3h2.7v2.3h1.9v2h-1.9v6
		c0,0.6,0.3,1,0.9,1h1.2L248.5,201.9L248.5,201.9z"/>
	<path class="st3" d="M259.8,196c0,2.5-0.5,4.3-1.4,5.1c-0.8,0.7-2,1.1-3.5,1.1c-2,0-3.3-0.6-4-1.7c-0.6-1.1-1-2.6-1-4.5
		c0-1.8,0.3-3.2,1-4.3c0.7-1.2,2-1.7,3.9-1.7s3.2,0.5,4,1.5C259.5,192.5,259.8,194,259.8,196z M257.2,196.6v-1.1
		c0-1-0.1-1.8-0.4-2.3s-0.9-0.8-1.9-0.8c-1.5,0-2.3,1-2.3,3.1v1.1c0,2.2,0.8,3.3,2.3,3.3c1,0,1.6-0.4,1.9-1.1
		C257,198.1,257.2,197.4,257.2,196.6z"/>
	<path class="st3" d="M156.7,226.7h-4.4c-1.7,0-2.9-0.3-3.6-1c-0.7-0.6-1.1-1.7-1.1-3.1V212h2.9v10.6c0,0.6,0.1,1,0.4,1.2
		c0.3,0.2,0.7,0.3,1.4,0.3h4.4L156.7,226.7L156.7,226.7z"/>
	<path class="st3" d="M167.6,221.5h-6.9c0,1.1,0.2,1.9,0.5,2.4s1,0.7,2,0.7c0.7,0,1.2-0.2,1.5-0.6s0.5-0.8,0.5-1.2h2.4
		c0,1.5-0.4,2.6-1.2,3.2c-0.8,0.7-1.8,1-3.1,1s-2.3-0.2-3-0.6c-1.5-0.8-2.2-2.8-2.2-6c0-1.9,0.4-3.4,1.3-4.3
		c0.8-0.9,2.1-1.4,3.8-1.4c3,0,4.5,1.7,4.5,5C167.6,220.1,167.6,220.7,167.6,221.5z M160.8,219.6h4.4c0-0.9-0.2-1.6-0.5-2
		s-0.9-0.6-1.6-0.6s-1.3,0.2-1.7,0.6S160.8,218.7,160.8,219.6z"/>
	<path class="st3" d="M178.2,226.7h-1.8l-0.8-1.4l-2.9,1.6c-1.6,0-2.7-0.6-3.2-1.7c-0.3-0.6-0.5-1.2-0.6-1.8c-0.1-0.7-0.2-1.3-0.2-2
		s0-1.2,0-1.6s0-0.7,0.1-1.2s0.1-0.8,0.2-1.1c0.1-0.3,0.3-0.6,0.4-0.9c0.2-0.3,0.4-0.6,0.7-0.8c0.6-0.4,1.4-0.6,2.4-0.6h2.8l2.7-0.2
		v11.7H178.2z M175.5,223v-5.5h-2c-0.8,0-1.3,0.3-1.6,0.9s-0.4,1.4-0.4,2.6c0,1.2,0.1,2,0.4,2.4c0.3,0.5,0.8,0.7,1.6,0.7L175.5,223z
		"/>
	<path class="st3" d="M187.4,215l-0.7,2.6c-0.2-0.1-0.4-0.1-0.7-0.1c-0.7,0-1.5,0.3-2.5,0.9v8.4h-2.7V215h2l0.6,1l2.9-1.2
		c0.1,0,0.3,0,0.6,0S187.2,214.8,187.4,215z"/>
	<path class="st3" d="M198.4,226.7h-2.7v-7.5c0-0.7-0.1-1.1-0.4-1.4c-0.3-0.2-0.7-0.4-1.2-0.4l-2.4,1v8.3H189v-11.8h2l0.6,1.4
		l3.3-1.5c0.9,0,1.7,0.3,2.4,1s1,1.7,1,3L198.4,226.7L198.4,226.7z"/>
	<path class="st3" d="M216.9,218l-2.6,5.6c-0.4,0.7-0.9,1.1-1.4,1.1s-1.1-0.4-1.4-1.2l-2.7-5.5v8.8h-2.9V212h2.8l4.2,8.5l4.1-8.5
		h2.8v14.7h-2.9L216.9,218L216.9,218z"/>
	<path class="st3" d="M231.7,220.8c0,2.5-0.5,4.3-1.4,5.1c-0.8,0.7-2,1.1-3.5,1.1c-2,0-3.3-0.6-4-1.7c-0.6-1.1-1-2.6-1-4.5
		c0-1.8,0.3-3.2,1-4.3c0.7-1.2,2-1.7,3.9-1.7s3.2,0.5,4,1.5C231.3,217.3,231.7,218.8,231.7,220.8z M229,221.4v-1.1
		c0-1-0.1-1.8-0.4-2.3c-0.3-0.5-0.9-0.8-1.9-0.8c-1.5,0-2.3,1-2.3,3.1v1.1c0,2.2,0.8,3.3,2.3,3.3c1,0,1.6-0.4,1.9-1.1
		C228.9,222.9,229,222.2,229,221.4z"/>
	<path class="st3" d="M240.1,215l-0.7,2.6c-0.2-0.1-0.4-0.1-0.7-0.1c-0.7,0-1.5,0.3-2.5,0.9v8.4h-2.7V215h2l0.6,1l2.9-1.2
		c0.1,0,0.3,0,0.6,0S239.9,214.8,240.1,215z"/>
	<path class="st3" d="M250.8,221.5h-6.9c0,1.1,0.2,1.9,0.5,2.4s1,0.7,2,0.7c0.7,0,1.2-0.2,1.5-0.6s0.5-0.8,0.5-1.2h2.4
		c0,1.5-0.4,2.6-1.2,3.2s-1.8,1-3.1,1s-2.3-0.2-3-0.6c-1.5-0.8-2.2-2.8-2.2-6c0-1.9,0.4-3.4,1.3-4.3c0.8-0.9,2.1-1.4,3.8-1.4
		c3,0,4.5,1.7,4.5,5C250.8,220.1,250.8,220.7,250.8,221.5z M243.9,219.6h4.4c0-0.9-0.2-1.6-0.5-2s-0.9-0.6-1.6-0.6s-1.3,0.2-1.7,0.6
		C244.1,218.1,243.9,218.7,243.9,219.6z"/>
	<path class="st3" d="M257.4,212l-0.6,8.9c-0.1,0.4-0.2,0.7-0.4,0.9c-0.2,0.2-0.5,0.3-0.7,0.3s-0.5-0.1-0.7-0.3s-0.3-0.5-0.3-0.9
		L254,212H257.4z M257.1,224c0.2,0.2,0.3,0.7,0.3,1.4s-0.1,1.1-0.3,1.4c-0.2,0.2-0.7,0.3-1.4,0.3s-1.1-0.1-1.4-0.3
		c-0.2-0.2-0.3-0.7-0.3-1.4s0.1-1.1,0.3-1.4s0.7-0.3,1.4-0.3C256.4,223.7,256.9,223.7,257.1,224z"/>
</g>
<a>
	<title>step2</title>
	<path class="st4" d="M215.3,12l31.9,54.3l-32.3,55c32.7,3.2,60.8,24.8,72.1,55.7l61.9,13.6l42-47.3C365,67.6,295.3,15.5,215.3,12z"
		/>
	<g class="st2">
		<path class="st3" d="M265.5,106.9v-2c0-2.1,0.5-3.7,1.6-4.9s2.6-1.7,4.5-1.7s3.5,0.6,4.6,1.7c0.8,0.8,1.2,2.1,1.2,3.7h-2.9
			c0-1.8-0.9-2.7-2.8-2.7c-0.6,0-1,0.1-1.4,0.3c-0.4,0.2-0.7,0.5-0.9,0.8c-0.2,0.3-0.3,0.7-0.4,1.3c-0.1,0.6-0.2,1-0.2,1.4
			s0,0.9,0,1.5s0,1,0,1.3c0,0.2,0,0.6,0.1,1.1c0,0.5,0.1,0.8,0.2,1s0.2,0.5,0.4,0.8c0.2,0.3,0.4,0.6,0.6,0.7
			c0.6,0.4,1.3,0.6,2.1,0.6c1.3,0,2.2-0.6,2.8-1.7V109h-1.9v-2.6h4.6v4.8c-0.5,1.1-1.2,1.9-2.2,2.5s-2.1,0.8-3.4,0.8
			c-2.3,0-3.9-0.6-4.9-1.9C266,111.4,265.5,109.4,265.5,106.9z"/>
		<path class="st3" d="M291.3,114.4h-5.6c-1.8,0-3.1-0.3-3.8-0.9s-1.1-1.7-1.1-3.3V98.4h10.5v2.8h-7.4v3.7h5.2l-0.2,2.8h-5v2.2
			c0,0.6,0.1,1.1,0.4,1.3c0.3,0.2,0.8,0.4,1.5,0.4h5.4v2.8H291.3z"/>
		<path class="st3" d="M304.7,101.2h-4.3v13.2h-3.1v-13.2H293v-2.8h11.7L304.7,101.2L304.7,101.2z"/>
		<path class="st3" d="M320.4,108.2h2.9c0,2-0.5,3.6-1.5,4.7s-2.5,1.6-4.3,1.6c-4.1,0-6.1-2.4-6.1-7.2V106c0-3.8,1-6.1,3.1-7.1
			c0.8-0.4,1.8-0.6,3-0.6c1.7,0,3.1,0.5,4.2,1.4s1.6,2.3,1.6,4h-2.9c-0.2-0.9-0.5-1.5-0.9-2s-1.1-0.7-2-0.7c-1,0-1.8,0.3-2.3,1
			c-0.4,0.5-0.6,1.3-0.6,2.4c0,0.4,0,0.8,0,1.5v1.4c0,1.7,0.2,2.9,0.7,3.5s1.3,0.9,2.3,0.9s1.8-0.3,2.2-0.9
			C320,110.3,320.3,109.4,320.4,108.2z"/>
		<path class="st3" d="M338,106.3v1.7c-0.1,1.1-0.2,2-0.4,2.8c-0.2,0.7-0.6,1.4-1.2,2c-1,1-2.5,1.5-4.4,1.5c-2.3,0-3.9-0.3-4.7-0.9
			c-0.9-0.6-1.3-1.7-1.3-3.3V98.4h6.2c1.8,0,3.2,0.5,4.2,1.5c0.8,0.8,1.3,1.8,1.5,3C337.9,103.8,338,104.9,338,106.3z M334.8,109.2
			c0.1-0.6,0.1-1.6,0.1-2.8s0-2.2-0.1-2.8c-0.1-0.6-0.3-1-0.5-1.4c-0.5-0.7-1.3-1-2.3-1h-2.8v8.8c0,0.6,0.2,1,0.6,1.2
			s1.1,0.3,2.2,0.3c1,0,1.8-0.3,2.4-1C334.5,110.3,334.7,109.8,334.8,109.2z"/>
	</g>
	<g class="st2">
		<path class="st3" d="M267.2,125.1c0,1.5-0.3,2.4-0.8,2.9c-0.5,0.4-1.1,0.6-2,0.6c-1.1,0-1.9-0.3-2.3-1c-0.4-0.6-0.6-1.5-0.6-2.6
			c0-1,0.2-1.8,0.6-2.4c0.4-0.7,1.2-1,2.2-1c1.1,0,1.8,0.3,2.2,0.9S267.2,124,267.2,125.1z M265.6,125.5v-0.6c0-0.6-0.1-1-0.3-1.3
			c-0.2-0.3-0.5-0.5-1.1-0.5c-0.9,0-1.3,0.6-1.3,1.7v0.6c0,1.2,0.4,1.9,1.3,1.9c0.6,0,0.9-0.2,1.1-0.6
			C265.6,126.3,265.6,125.9,265.6,125.5z"/>
		<path class="st3" d="M271.2,123.2H270v5.3h-1.5v-5.3h-0.6V122h0.6v-0.6c0-0.5,0.2-0.9,0.5-1.2s0.7-0.5,1.3-0.5h1v1.3h-0.7
			c-0.4,0-0.5,0.2-0.5,0.6v0.6h1.2L271.2,123.2L271.2,123.2z"/>
		<path class="st3" d="M279.8,126.6v0.2c0,0.6-0.3,1-0.7,1.3c-0.5,0.3-1,0.4-1.7,0.4c-1,0-1.7-0.2-2.1-0.5s-0.6-0.8-0.6-1.5v-0.1
			h1.4c0,0.4,0.1,0.6,0.3,0.7s0.5,0.2,1,0.2c0.6,0,0.9-0.2,0.9-0.7c0-0.4-0.1-0.6-0.3-0.8c-0.1-0.1-0.2-0.1-0.4-0.1l-1.2-0.2
			c-1-0.2-1.6-0.8-1.6-1.9c0-0.6,0.2-1.1,0.7-1.5s1-0.5,1.7-0.5c1.6,0,2.4,0.7,2.4,2.1v0.2h-1.3c0-0.4-0.1-0.6-0.3-0.8
			c-0.2-0.1-0.4-0.2-0.8-0.2c-0.3,0-0.6,0.1-0.7,0.2c-0.2,0.1-0.2,0.3-0.2,0.4c0,0.4,0.2,0.7,0.5,0.8l1.4,0.3
			C279.2,124.8,279.8,125.5,279.8,126.6z"/>
		<path class="st3" d="M283.9,128.5h-1c-0.6,0-1-0.2-1.3-0.5s-0.5-0.8-0.5-1.2v-3.5h-0.6v-1.2h0.6v-1.3h1.5v1.3h1.1v1.2h-1.1v3.4
			c0,0.4,0.2,0.6,0.5,0.6h0.7L283.9,128.5L283.9,128.5z"/>
		<path class="st3" d="M290.2,128.5h-1.1l-0.4-0.8l-1.9,0.9c-0.5,0-1-0.2-1.4-0.6s-0.6-1-0.6-1.7v-4.5h1.5v4.2
			c0,0.7,0.3,1.1,0.9,1.1l1.4-0.7v-4.6h1.5v6.7H290.2z"/>
		<path class="st3" d="M296.8,128.5h-1l-0.5-0.8l-1.6,0.9c-0.9,0-1.5-0.3-1.8-1c-0.2-0.3-0.3-0.7-0.3-1c-0.1-0.4-0.1-0.8-0.1-1.2
			c0-0.4,0-0.7,0-0.9s0-0.4,0.1-0.7s0.1-0.5,0.1-0.6c0.1-0.2,0.1-0.4,0.3-0.5c0.1-0.2,0.2-0.3,0.4-0.4c0.4-0.2,0.8-0.4,1.4-0.4h1.6
			v-2.2h1.5v8.8H296.8z M295.3,126.4v-3.2h-1.2c-0.4,0-0.7,0.2-0.9,0.5s-0.3,0.8-0.3,1.5s0.1,1.1,0.2,1.4c0.2,0.3,0.5,0.4,0.9,0.4
			L295.3,126.4z"/>
		<path class="st3" d="M303.4,121.8l-2.6,7.5c-0.1,0.3-0.3,0.6-0.5,0.8c-0.3,0.3-0.8,0.5-1.3,0.5h-0.7v-1.4h0.5c0.2,0,0.4,0,0.5-0.1
			s0.2-0.2,0.3-0.4l0.1-0.3l-2-6.5h1.6l1.2,4.7l1.3-4.7h1.6V121.8z"/>
		<path class="st3" d="M307.8,119.2c0.4,0,0.6,0.1,0.7,0.2s0.2,0.4,0.2,0.7s-0.1,0.6-0.2,0.7s-0.4,0.2-0.7,0.2s-0.6-0.1-0.7-0.2
			s-0.2-0.4-0.2-0.7s0.1-0.6,0.2-0.7C307.2,119.3,307.5,119.2,307.8,119.2z M308.6,128.5h-1.5V122h1.5V128.5z"/>
		<path class="st3" d="M319,128.5h-1.5v-4.2c0-0.4,0-0.7-0.1-0.9c-0.1-0.2-0.3-0.2-0.5-0.2l-1.4,0.6v4.7H314v-4.2
			c0-0.7-0.3-1.1-0.8-1.1l-1.3,0.6v4.7h-1.5v-6.7h1.1l0.4,0.8l1.8-0.9c0.6,0,1.1,0.3,1.4,0.9l2.2-0.9c0.6,0,1.1,0.2,1.4,0.6
			s0.5,1,0.5,1.7v4.5H319z"/>
		<path class="st3" d="M325.2,128.5h-1l-0.5-0.8l-1.6,0.9c-0.9,0-1.5-0.3-1.8-1c-0.2-0.3-0.3-0.7-0.3-1c-0.1-0.4-0.1-0.8-0.1-1.2
			c0-0.4,0-0.7,0-0.9c0-0.2,0-0.4,0.1-0.7s0.1-0.5,0.1-0.6c0.1-0.2,0.1-0.4,0.3-0.5c0.1-0.2,0.2-0.3,0.4-0.4
			c0.4-0.2,0.8-0.4,1.4-0.4h1.6l1.5-0.1v6.7H325.2z M323.7,126.4v-3.2h-1.2c-0.4,0-0.7,0.2-0.9,0.5s-0.3,0.8-0.3,1.5
			s0.1,1.1,0.2,1.4c0.2,0.3,0.5,0.4,0.9,0.4L323.7,126.4z"/>
		<path class="st3" d="M330.2,121.8l1.5-0.1v6.5c0,0.7-0.2,1.3-0.6,1.7s-1,0.6-1.9,0.6c-0.6,0-1.2-0.1-1.7-0.4
			c-0.3-0.1-0.5-0.3-0.6-0.6s-0.2-0.5-0.2-0.9l1.4-0.1c0,0.2,0.1,0.4,0.2,0.5s0.4,0.1,0.8,0.1s0.6-0.1,0.8-0.3
			c0.1-0.2,0.2-0.5,0.2-0.8l0.1-1l-1.6,0.9c-0.9,0-1.5-0.3-1.8-0.9c-0.3-0.5-0.4-1.2-0.4-2c0-0.9,0.1-1.6,0.2-2s0.4-0.7,0.6-0.9
			c0.4-0.2,0.8-0.4,1.4-0.4L330.2,121.8L330.2,121.8z M330.2,125.8v-2.6H329c-0.4,0-0.7,0.1-0.9,0.4c-0.2,0.3-0.2,0.7-0.2,1.2
			s0.1,0.9,0.3,1.1s0.5,0.3,0.9,0.3L330.2,125.8z"/>
		<path class="st3" d="M338.5,125.5h-3.9c0,0.6,0.1,1.1,0.3,1.3c0.2,0.3,0.6,0.4,1.2,0.4c0.4,0,0.7-0.1,0.8-0.4
			c0.2-0.2,0.3-0.5,0.3-0.7h1.4c0,0.8-0.2,1.5-0.7,1.8c-0.5,0.4-1,0.6-1.8,0.6s-1.3-0.1-1.7-0.3c-0.8-0.4-1.3-1.6-1.3-3.4
			c0-1.1,0.2-1.9,0.7-2.4s1.2-0.8,2.2-0.8c1.7,0,2.6,0.9,2.6,2.8C338.5,124.7,338.5,125.1,338.5,125.5z M334.6,124.5h2.5
			c0-0.5-0.1-0.9-0.3-1.1s-0.5-0.4-0.9-0.4s-0.7,0.1-1,0.4S334.6,123.9,334.6,124.5z"/>
		<path class="st3" d="M344.5,126.6v0.2c0,0.6-0.3,1-0.7,1.3c-0.5,0.3-1,0.4-1.7,0.4c-1,0-1.7-0.2-2.1-0.5s-0.6-0.8-0.6-1.5v-0.1
			h1.4c0,0.4,0.1,0.6,0.3,0.7s0.5,0.2,1,0.2c0.6,0,0.9-0.2,0.9-0.7c0-0.4-0.1-0.6-0.3-0.8c-0.1-0.1-0.2-0.1-0.4-0.1l-1.2-0.2
			c-1-0.2-1.6-0.8-1.6-1.9c0-0.6,0.2-1.1,0.7-1.5s1-0.5,1.7-0.5c1.6,0,2.4,0.7,2.4,2.1v0.2H343c0-0.4-0.1-0.6-0.3-0.8
			c-0.2-0.1-0.4-0.2-0.8-0.2c-0.3,0-0.6,0.1-0.7,0.2c-0.2,0.1-0.2,0.3-0.2,0.4c0,0.4,0.2,0.7,0.5,0.8l1.4,0.3
			C344,124.8,344.5,125.5,344.5,126.6z"/>
	</g>
	<circle class="st5" cx="290.5" cy="64.1" r="18.8"/>
	<circle class="st0" cx="290.5" cy="64.1" r="5.6"/>
	<circle class="st3" cx="290.5" cy="64.1" r="3.1"/>
	<path class="st6" d="M351.3,179.2H338c-1,0-2-0.2-2.9-0.7c-0.8-0.5-1.3-1.4-1.2-2.4c0-1,0.4-1.9,1-2.7c0.2-0.3,0.6-0.7,1.2-1.3
		l4.2-4.7c1-1,2-2.1,2.9-3.3c0.7-1,1.2-1.7,1.6-2.2c0.3-0.4,0.5-0.8,0.8-1.3c0.4-0.7,0.6-1.5,0.7-2.3c0-0.7-0.3-1.3-0.7-1.9
		c-0.5-0.6-1.4-0.9-2.6-0.9c-1.3,0-2.1,0.4-2.6,1.1c-0.5,0.9-0.8,2-0.7,3.1h-5.1c0-1.2,0.1-2.3,0.3-3.4c0.2-1,0.6-1.9,1.2-2.7
		c1.2-1.8,3.6-2.6,7.3-2.6c2.7,0,4.9,0.6,6.4,1.7c1.5,1.1,2.3,2.9,2.2,4.8c0,1.4-0.3,2.7-0.9,4c-0.5,1.2-1.1,2.3-1.9,3.3
		c-0.7,0.8-1.4,1.8-2.3,2.8s-1.4,1.6-1.6,1.8l-4.4,5.1h10.8L351.3,179.2z"/>
</a>
<a>
	<title>step3</title>
	<path class="st7" d="M399,207.9c0-17.3-2.3-34.6-6.9-51.3l-41.4,46.7L289,189.7c1.3,6,2,12.1,2,18.2c-0.1,26-12,50.6-32.3,66.7
		l6.1,62.5l57.3,25C370.3,325.7,399,268.3,399,207.9z"/>
	<g class="st2">
		<path class="st3" d="M288.2,267h-5.6c-0.7,0-1.1,0.1-1.4,0.4s-0.4,0.7-0.4,1.3v2.2h5.8l-0.2,2.8h-5.6v6.4h-3.1v-12.6
			c0-1.2,0.3-2,0.8-2.5s1.4-0.7,2.6-0.7h7v2.7H288.2z"/>
		<path class="st3" d="M294,280.1h-3.1v-15.8h3.1V280.1z"/>
		<path class="st3" d="M307.4,280.1h-4.7c-1.8,0-3.1-0.3-3.9-1s-1.2-1.8-1.2-3.4v-11.4h3.1v11.4c0,0.6,0.1,1,0.4,1.3
			c0.3,0.2,0.8,0.4,1.5,0.4h4.7v2.7H307.4z"/>
		<path class="st3" d="M319.6,280.1h-4.7c-1.8,0-3.1-0.3-3.9-1s-1.2-1.8-1.2-3.4v-11.4h3.1v11.4c0,0.6,0.1,1,0.4,1.3
			c0.3,0.2,0.8,0.4,1.5,0.4h4.7v2.7H319.6z"/>
		<path class="st3" d="M338.8,271.4v1.2c0,2.6-0.5,4.6-1.5,5.8c-1,1.2-2.6,1.8-4.8,1.8c-2.2,0-3.8-0.6-4.8-1.8
			c-1-1.2-1.5-3.1-1.5-5.8v-1.2c0-2.5,0.5-4.3,1.5-5.5s2.6-1.8,4.7-1.8s3.8,0.6,4.8,1.8C338.3,267.2,338.8,269,338.8,271.4z
			 M335.8,272.6v-0.8c0-1.4-0.2-2.6-0.5-3.4c-0.4-1-1.3-1.5-2.7-1.5c-1.4,0-2.3,0.5-2.7,1.5c-0.3,0.8-0.5,1.9-0.5,3.4v0.8
			c0,1.9,0.3,3.2,0.8,3.9c0.2,0.3,0.5,0.5,0.9,0.7s0.9,0.3,1.5,0.3s1.1-0.1,1.5-0.3s0.7-0.4,0.9-0.7s0.4-0.7,0.5-1.1
			C335.6,274.6,335.8,273.7,335.8,272.6z"/>
		<path class="st3" d="M353.2,264.3v10.4c0,1.7-0.6,3.1-1.7,4.1s-2.6,1.5-4.3,1.5s-3.1-0.5-4.3-1.5c-1.2-1-1.7-2.3-1.7-4.1v-10.4
			h3.1v10.3c0,1,0.3,1.7,0.8,2.2s1.3,0.7,2.1,0.7s1.6-0.2,2.2-0.7c0.5-0.5,0.8-1.2,0.8-2.2v-10.3H353.2z"/>
		<path class="st3" d="M366.6,267h-4.2v13h-3.1v-13h-4.2v-2.8h11.5L366.6,267L366.6,267z"/>
	</g>
	<g class="st2">
		<path class="st3" d="M279.5,284.9c0.4,0,0.6,0.1,0.7,0.2s0.2,0.3,0.2,0.7s-0.1,0.6-0.2,0.7s-0.3,0.2-0.7,0.2
			c-0.4,0-0.6-0.1-0.7-0.2s-0.2-0.4-0.2-0.7s0.1-0.6,0.2-0.7C278.8,284.9,279.1,284.9,279.5,284.9z M280.2,294.1h-1.5v-6.4h1.5
			V294.1z"/>
		<path class="st3" d="M287,294.1h-1.5v-4.3c0-0.4-0.1-0.6-0.2-0.8c-0.2-0.1-0.4-0.2-0.7-0.2l-1.4,0.6v4.7h-1.5v-6.7h1.1l0.3,0.8
			l1.9-0.9c0.5,0,1,0.2,1.4,0.6s0.6,0.9,0.6,1.7L287,294.1L287,294.1z"/>
		<path class="st3" d="M291.4,288.8h-1.2v5.2h-1.5v-5.2H288v-1.2h0.6V287c0-0.5,0.2-0.9,0.5-1.2s0.7-0.5,1.3-0.5h1v1.3h-0.7
			c-0.3,0-0.5,0.2-0.5,0.5v0.5h1.2V288.8z"/>
		<path class="st3" d="M297.7,290.7c0,1.4-0.3,2.4-0.8,2.9c-0.5,0.4-1.1,0.6-2,0.6c-1.1,0-1.9-0.3-2.2-1c-0.4-0.6-0.5-1.4-0.5-2.5
			c0-1,0.2-1.8,0.5-2.4c0.4-0.7,1.1-1,2.2-1s1.8,0.3,2.2,0.9C297.5,288.7,297.7,289.6,297.7,290.7z M296.1,291v-0.6
			c0-0.6-0.1-1-0.3-1.3c-0.2-0.3-0.5-0.5-1-0.5c-0.9,0-1.3,0.6-1.3,1.7v0.6c0,1.2,0.4,1.9,1.3,1.9c0.6,0,0.9-0.2,1.1-0.6
			C296.1,291.9,296.1,291.5,296.1,291z"/>
		<path class="st3" d="M302.4,287.4l-0.4,1.5c-0.1,0-0.2-0.1-0.4-0.1c-0.4,0-0.9,0.2-1.4,0.5v4.7h-1.5v-6.7h1.1l0.3,0.6l1.6-0.7
			c0.1,0,0.2,0,0.3,0S302.3,287.3,302.4,287.4z"/>
		<path class="st3" d="M312,294.1h-1.5V290c0-0.4,0-0.7-0.1-0.9c-0.1-0.2-0.3-0.2-0.5-0.2l-1.4,0.6v4.7H307v-4.1
			c0-0.7-0.3-1.1-0.8-1.1l-1.2,0.6v4.7h-1.5v-6.7h1.1l0.3,0.8l1.7-0.9c0.6,0,1.1,0.3,1.4,0.9l2.2-0.9c0.6,0,1.1,0.2,1.4,0.6
			s0.4,1,0.4,1.6V294.1z"/>
		<path class="st3" d="M318.2,294.1h-1l-0.5-0.8l-1.6,0.9c-0.9,0-1.5-0.3-1.8-1c-0.2-0.3-0.3-0.7-0.3-1c-0.1-0.4-0.1-0.8-0.1-1.2
			c0-0.4,0-0.7,0-0.9s0-0.4,0.1-0.7c0-0.3,0.1-0.5,0.1-0.6c0.1-0.2,0.1-0.3,0.3-0.5c0.1-0.2,0.2-0.3,0.4-0.4
			c0.3-0.2,0.8-0.4,1.4-0.4h1.6l1.5-0.1v6.7H318.2z M316.7,291.9v-3.1h-1.2c-0.4,0-0.7,0.2-0.9,0.5s-0.3,0.8-0.3,1.5
			s0.1,1.1,0.2,1.4c0.2,0.3,0.5,0.4,0.9,0.4L316.7,291.9z"/>
		<path class="st3" d="M322.7,294.1h-0.9c-0.6,0-1-0.2-1.3-0.5s-0.4-0.7-0.4-1.2v-3.5h-0.6v-1.2h0.6v-1.3h1.5v1.3h1.1v1.2h-1.1v3.4
			c0,0.4,0.2,0.5,0.5,0.5h0.7v1.3H322.7z"/>
		<path class="st3" d="M324.7,284.9c0.4,0,0.6,0.1,0.7,0.2s0.2,0.3,0.2,0.7s-0.1,0.6-0.2,0.7s-0.3,0.2-0.7,0.2
			c-0.4,0-0.6-0.1-0.7-0.2s-0.2-0.4-0.2-0.7s0.1-0.6,0.2-0.7C324.1,284.9,324.4,284.9,324.7,284.9z M325.5,294.1H324v-6.4h1.5V294.1
			z"/>
		<path class="st3" d="M332.3,290.7c0,1.4-0.3,2.4-0.8,2.9c-0.5,0.4-1.1,0.6-2,0.6c-1.1,0-1.9-0.3-2.2-1c-0.4-0.6-0.5-1.4-0.5-2.5
			c0-1,0.2-1.8,0.5-2.4c0.4-0.7,1.1-1,2.2-1s1.8,0.3,2.2,0.9C332.1,288.7,332.3,289.6,332.3,290.7z M330.8,291v-0.6
			c0-0.6-0.1-1-0.3-1.3c-0.2-0.3-0.5-0.5-1-0.5c-0.9,0-1.3,0.6-1.3,1.7v0.6c0,1.2,0.4,1.9,1.3,1.9c0.6,0,0.9-0.2,1.1-0.6
			C330.7,291.9,330.8,291.5,330.8,291z"/>
		<path class="st3" d="M338.6,294.1h-1.5v-4.3c0-0.4-0.1-0.6-0.2-0.8c-0.2-0.1-0.4-0.2-0.7-0.2l-1.4,0.6v4.7h-1.5v-6.7h1.1l0.3,0.8
			l1.9-0.9c0.5,0,1,0.2,1.4,0.6s0.6,0.9,0.6,1.7L338.6,294.1L338.6,294.1z"/>
		<path class="st3" d="M346.3,291.6h1.4c0,0.1,0,0.2,0,0.3c0,0.2,0,0.3,0,0.3c0,0.1,0,0.1,0,0.3s0,0.2-0.1,0.3c0,0.1,0,0.1-0.1,0.2
			c-0.1,0.4-0.5,0.7-1.1,1c-0.4,0.1-0.8,0.2-1.2,0.2c-0.4,0-0.8-0.1-1.2-0.2s-0.6-0.3-0.8-0.5c-0.5-0.5-0.7-1.4-0.7-2.7
			s0.2-2.2,0.7-2.7c0.2-0.2,0.5-0.4,0.8-0.5s0.7-0.2,1.2-0.2c0.8,0,1.5,0.2,1.9,0.6s0.7,1,0.7,1.7h-1.4c0-0.3-0.1-0.6-0.3-0.8
			s-0.5-0.3-0.9-0.3s-0.8,0.1-0.9,0.4c-0.2,0.3-0.2,0.7-0.2,1.3v0.6c0,0.9,0.2,1.5,0.5,1.7c0.2,0.1,0.4,0.2,0.6,0.2
			c0.3,0,0.5,0,0.6-0.1c0.2-0.1,0.3-0.1,0.4-0.3c0.1-0.1,0.1-0.2,0.1-0.4C346.2,292,346.3,291.9,346.3,291.6z"/>
		<path class="st3" d="M353.5,294.1h-1l-0.5-0.8l-1.6,0.9c-0.9,0-1.5-0.3-1.8-1c-0.2-0.3-0.3-0.7-0.3-1c-0.1-0.4-0.1-0.8-0.1-1.2
			c0-0.4,0-0.7,0-0.9s0-0.4,0.1-0.7c0-0.3,0.1-0.5,0.1-0.6c0.1-0.2,0.1-0.3,0.3-0.5c0.1-0.2,0.2-0.3,0.4-0.4
			c0.3-0.2,0.8-0.4,1.4-0.4h1.6l1.5-0.1v6.7H353.5z M352,291.9v-3.1h-1.2c-0.4,0-0.7,0.2-0.9,0.5s-0.3,0.8-0.3,1.5s0.1,1.1,0.2,1.4
			c0.2,0.3,0.5,0.4,0.9,0.4L352,291.9z"/>
		<path class="st3" d="M358.7,287.4l-0.4,1.5c-0.1,0-0.2-0.1-0.4-0.1c-0.4,0-0.9,0.2-1.4,0.5v4.7H355v-6.7h1.1l0.3,0.6l1.6-0.7
			c0.1,0,0.2,0,0.3,0S358.5,287.3,358.7,287.4z"/>
		<path class="st3" d="M364.5,294.1h-1l-0.5-0.8l-1.6,0.9c-0.9,0-1.5-0.3-1.8-1c-0.2-0.3-0.3-0.7-0.3-1c-0.1-0.4-0.1-0.8-0.1-1.2
			c0-0.4,0-0.7,0-0.9s0-0.4,0.1-0.7c0-0.3,0.1-0.5,0.1-0.6c0.1-0.2,0.1-0.3,0.3-0.5s0.2-0.3,0.4-0.4c0.3-0.2,0.8-0.4,1.4-0.4h1.6
			v-2.2h1.5v8.8H364.5z M363,291.9v-3.1h-1.2c-0.4,0-0.7,0.2-0.9,0.5s-0.3,0.8-0.3,1.5s0.1,1.1,0.2,1.4c0.2,0.3,0.5,0.4,0.9,0.4
			L363,291.9z"/>
	</g>
	<path class="st0" d="M354.8,217.5V214c0-1-0.8-1.7-1.7-1.7h-19l-6.9,6.9v27.7c0,1,0.8,1.7,1.7,1.7h24.2c1,0,1.7-0.8,1.7-1.7V233"/>
	<polyline class="st0" points="329.7,220.1 334.9,220.1 334.9,214.9 	"/>
	<path class="st0" d="M364.2,215.9c-1-1-3.6-0.1-5.6,1.9L347,229.5c-3.6,3.6-7.8,9.4-6.7,10.4c1,1,6.8-3.2,10.4-6.8l11.7-11.7
		C364.3,219.5,365.2,216.9,364.2,215.9z"/>
	<line class="st8" x1="338.7" y1="241.3" x2="340.2" y2="239.8"/>
	<path class="st0" d="M358.6,217.8l4.9,4.9c0.7,0.7,0.7,1.8,0,2.4l0,0l-6.1,6.1"/>
	<line class="st0" x1="346.2" y1="231.5" x2="348" y2="233.9"/>
	<line class="st5" x1="364.2" y1="215.9" x2="365.9" y2="214.2"/>
	<path class="st6" d="M282,323.6l0.9-4.3l2.4,1.1c1-1.4,1.6-3.1,1.5-4.9c-0.1-0.7-0.4-1.3-0.9-1.7c-0.6-0.6-1.6-0.9-2.8-0.9
		s-2.2,0.3-2.6,0.9c-0.5,0.6-0.7,1.7-0.7,3.2h-4.7c0-3,0.7-5.2,2-6.6c1.4-1.4,3.4-2.1,6.2-2.1c5.6,0,8.5,2.4,8.5,7.2
		c0,2.8-0.9,5.1-2.6,6.9c2,1.1,2.9,3.2,3,6.3c0,2.4-0.8,4.3-2.3,5.7c-1.5,1.4-3.7,2-6.5,2s-4.8-0.7-6.2-2.1c-1.4-1.4-2-3.3-2-5.7
		h4.9c0,0.4,0.1,0.9,0.2,1.3c0.2,0.5,0.5,1,0.9,1.3c0.7,0.5,1.5,0.7,2.3,0.7c1,0,1.9-0.3,2.6-1c0.6-0.6,1-1.4,1-2.3
		c0.1-0.7-0.1-1.4-0.5-2l-0.7-0.9c-0.3-0.3-0.5-0.5-0.9-0.6l-0.9-0.5c-0.2-0.1-0.5-0.2-1-0.5C282.4,323.8,282.1,323.7,282,323.6z"/>
</a>
<a>
	<title>step4</title>
	<path class="st9" d="M312.5,370.6l-57.6-25.2l-6.2-63.3c-13.1,7.7-28.1,11.8-43.3,11.7c-16.9,0-33.5-5-47.5-14.4l-58,25.3
		l-6.1,62.7c32.7,23,71.7,35.3,111.6,35.2C243.4,402.8,280.7,391.7,312.5,370.6z"/>
	<path class="st6" d="M126.3,327.6h-3.1v6h-4.9v-6h-8.1c-1.1,0.1-2.1-0.2-3-0.8c-0.7-0.6-1-1.4-1-2.3c0.1-1,0.3-1.9,0.7-2.8
		c0.4-1.3,1.7-4.7,3.7-10.3h5.5l-4.3,11.4h6.5v-17h4.9v17h3.1L126.3,327.6z"/>
	<g class="st2">
		<path class="st3" d="M177.1,320.6c0,1.5-0.6,2.7-1.7,3.5s-2.5,1.3-4.2,1.3c-1.4,0-2.7-0.4-3.9-1.1c-0.6-0.4-1.1-0.9-1.5-1.6
			s-0.6-1.5-0.6-2.4l2.8-0.1c0,0.8,0.3,1.4,1,1.9s1.4,0.7,2.3,0.7c1.9,0,2.8-0.7,2.8-2c0-1.1-0.6-1.7-1.9-1.9l-2.6-0.3
			c-1.3-0.2-2.3-0.7-3.1-1.4s-1.1-1.8-1.1-3.2c0-1.4,0.5-2.5,1.6-3.4s2.5-1.3,4.1-1.3c1.7,0,3,0.4,4,1.3c1,0.8,1.5,1.9,1.5,3.3
			l-2.8,0.1c-0.3-1.3-1.1-1.9-2.6-1.9c-0.9,0-1.6,0.2-2.1,0.6s-0.8,0.8-0.8,1.4c0,0.5,0.2,0.9,0.6,1.3s0.8,0.5,1.4,0.6l2.5,0.3
			C175.6,316.4,177.1,317.9,177.1,320.6z"/>
		<path class="st3" d="M191.4,325.3h-3.1v-6.4h-5.8v6.4h-3.1v-15.9h3.1v6.7h5.8v-6.7h3.1V325.3z"/>
		<path class="st3" d="M198,325.3h-3.1v-15.9h3.1V325.3z"/>
		<path class="st3" d="M211.7,310.8c0.9,0.9,1.4,2.3,1.4,4s-0.5,3.1-1.4,4s-2.2,1.4-3.9,1.4h-3.1v5.1h-3.1v-15.9h6.2
			C209.5,309.4,210.8,309.8,211.7,310.8z M210,314.8c0-1.8-0.8-2.6-2.3-2.6h-2.9v5.3h2.9c0.7,0,1.3-0.2,1.7-0.6
			C209.8,316.4,210,315.7,210,314.8z"/>
	</g>
	<g class="st2">
		<path class="st3" d="M153.1,339.4h-1c-0.6,0-1-0.2-1.3-0.5s-0.5-0.8-0.5-1.2v-3.5h-0.6V333h0.6v-1.3h1.5v1.3h1.1v1.2h-1.1v3.4
			c0,0.4,0.2,0.6,0.5,0.6h0.7v1.2H153.1z"/>
		<path class="st3" d="M159.6,339.4H158v-4.2c0-0.7-0.3-1.1-0.8-1.1l-1.5,0.6v4.7h-1.5v-8.8h1.5v2.9l1.9-0.9c0.7,0,1.2,0.2,1.5,0.6
			s0.4,0.9,0.4,1.6v4.6H159.6z"/>
		<path class="st3" d="M166.1,336.4h-3.9c0,0.6,0.1,1.1,0.3,1.3c0.2,0.3,0.6,0.4,1.2,0.4c0.4,0,0.7-0.1,0.8-0.4
			c0.2-0.2,0.3-0.5,0.3-0.7h1.4c0,0.8-0.2,1.5-0.7,1.8c-0.5,0.4-1,0.6-1.8,0.6c-0.7,0-1.3-0.1-1.7-0.3c-0.8-0.4-1.3-1.6-1.3-3.4
			c0-1.1,0.2-1.9,0.7-2.4s1.2-0.8,2.2-0.8c1.7,0,2.5,0.9,2.5,2.8C166.1,335.6,166.1,336,166.1,336.4z M162.2,335.3h2.5
			c0-0.5-0.1-0.9-0.3-1.1s-0.5-0.4-0.9-0.4s-0.7,0.1-1,0.4C162.3,334.5,162.2,334.8,162.2,335.3z"/>
		<path class="st3" d="M175.6,335.9c0,1.7-0.5,2.9-1.4,3.3c-0.4,0.2-0.8,0.3-1.4,0.3l-1.1-0.7v2.6h-1.5v-8.7h3
			c0.9,0,1.5,0.3,1.9,0.8S175.6,334.8,175.6,335.9z M174.1,336.1c0-1.3-0.4-2-1.3-2h-1v3.1l1,0.7c0.5,0,0.8-0.1,1-0.4
			C174,337.2,174.1,336.7,174.1,336.1z"/>
		<path class="st3" d="M180.4,332.7l-0.4,1.5c-0.1,0-0.3-0.1-0.4-0.1c-0.4,0-0.9,0.2-1.4,0.5v4.7h-1.5v-6.7h1.1l0.4,0.6l1.6-0.7
			c0.1,0,0.2,0,0.3,0C180.1,332.6,180.2,332.6,180.4,332.7z"/>
		<path class="st3" d="M186.4,336.4h-3.9c0,0.6,0.1,1.1,0.3,1.3c0.2,0.3,0.6,0.4,1.2,0.4c0.4,0,0.7-0.1,0.8-0.4
			c0.2-0.2,0.3-0.5,0.3-0.7h1.4c0,0.8-0.2,1.5-0.7,1.8c-0.5,0.4-1,0.6-1.8,0.6c-0.7,0-1.3-0.1-1.7-0.3c-0.8-0.4-1.3-1.6-1.3-3.4
			c0-1.1,0.2-1.9,0.7-2.4s1.2-0.8,2.2-0.8c1.7,0,2.5,0.9,2.5,2.8C186.4,335.6,186.4,336,186.4,336.4z M182.5,335.3h2.5
			c0-0.5-0.1-0.9-0.3-1.1s-0.5-0.4-0.9-0.4s-0.7,0.1-1,0.4C182.6,334.5,182.5,334.8,182.5,335.3z"/>
		<path class="st3" d="M193.2,335.9c0,1.7-0.5,2.9-1.4,3.3c-0.4,0.2-0.8,0.3-1.4,0.3l-1.1-0.7v2.6h-1.5v-8.7h3
			c0.9,0,1.5,0.3,1.9,0.8S193.2,334.8,193.2,335.9z M191.6,336.1c0-1.3-0.4-2-1.3-2h-1v3.1l1,0.7c0.5,0,0.8-0.1,1-0.4
			C191.5,337.2,191.6,336.7,191.6,336.1z"/>
		<path class="st3" d="M199,339.4h-1l-0.5-0.8l-1.6,0.9c-0.9,0-1.5-0.3-1.8-1c-0.2-0.3-0.3-0.7-0.3-1c-0.1-0.4-0.1-0.8-0.1-1.2
			c0-0.4,0-0.7,0-0.9c0-0.2,0-0.4,0.1-0.7c0-0.3,0.1-0.5,0.1-0.6c0.1-0.2,0.1-0.3,0.3-0.5c0.1-0.2,0.2-0.3,0.4-0.4
			c0.4-0.2,0.8-0.4,1.4-0.4h1.6l1.5-0.1L199,339.4L199,339.4z M197.5,337.2v-3.1h-1.2c-0.4,0-0.7,0.2-0.9,0.5s-0.3,0.8-0.3,1.5
			s0.1,1.1,0.2,1.4c0.2,0.3,0.5,0.4,0.9,0.4L197.5,337.2z"/>
		<path class="st3" d="M201.4,330.1c0.4,0,0.6,0.1,0.7,0.2c0.1,0.1,0.2,0.4,0.2,0.7c0,0.4-0.1,0.6-0.2,0.7c-0.1,0.1-0.4,0.2-0.7,0.2
			s-0.6-0.1-0.7-0.2c-0.1-0.1-0.2-0.4-0.2-0.7c0-0.4,0.1-0.6,0.2-0.7C200.8,330.2,201.1,330.1,201.4,330.1z M202.2,339.4h-1.5v-6.5
			h1.5V339.4z"/>
		<path class="st3" d="M208.8,339.4h-1l-0.5-0.8l-1.6,0.9c-0.9,0-1.5-0.3-1.8-1c-0.2-0.3-0.3-0.7-0.3-1c-0.1-0.4-0.1-0.8-0.1-1.2
			c0-0.4,0-0.7,0-0.9c0-0.2,0-0.4,0.1-0.7c0-0.3,0.1-0.5,0.1-0.6c0.1-0.2,0.1-0.3,0.3-0.5c0.1-0.2,0.2-0.3,0.4-0.4
			c0.4-0.2,0.8-0.4,1.4-0.4h1.6v-2.2h1.5L208.8,339.4L208.8,339.4z M207.2,337.2v-3.1H206c-0.4,0-0.7,0.2-0.9,0.5s-0.3,0.8-0.3,1.5
			s0.1,1.1,0.2,1.4c0.2,0.3,0.5,0.4,0.9,0.4L207.2,337.2z"/>
		<path class="st3" d="M216.1,339.4h-1.3c-0.6,0-1-0.2-1.3-0.5s-0.5-0.8-0.5-1.2v-7.1h1.5v3l1.8-0.8c0.7,0,1.2,0.2,1.5,0.6
			c0.3,0.3,0.5,0.9,0.5,1.6c0,0.3,0,0.7,0,1.2C218.4,338.3,217.6,339.4,216.1,339.4z M214.9,338.1h0.8c0.8,0,1.3-0.7,1.3-2.1
			c0-0.7-0.1-1.2-0.2-1.5c-0.1-0.3-0.4-0.4-0.8-0.4l-1.4,0.7v2.6C214.5,337.9,214.6,338,214.9,338.1z"/>
		<path class="st3" d="M224.9,336c0,1.4-0.3,2.4-0.8,2.9c-0.5,0.4-1.1,0.6-2,0.6c-1.1,0-1.9-0.3-2.3-1c-0.4-0.6-0.6-1.5-0.6-2.6
			c0-1,0.2-1.8,0.6-2.4c0.4-0.7,1.1-1,2.2-1s1.8,0.3,2.2,0.9S224.9,334.9,224.9,336z M223.4,336.4v-0.6c0-0.6-0.1-1-0.3-1.3
			s-0.5-0.5-1.1-0.5c-0.9,0-1.3,0.6-1.3,1.7v0.6c0,1.2,0.4,1.9,1.3,1.9c0.6,0,0.9-0.2,1.1-0.6S223.4,336.8,223.4,336.4z"/>
		<path class="st3" d="M231.3,339.4h-1.7l-1.2-2.1l-1.1,2.1h-1.8l2.2-3.4l-2.1-3.3h1.7l1.2,1.9l1.1-1.9h1.7l-2.1,3.3L231.3,339.4z"
			/>
	</g>
	<path class="st0" d="M197.1,359.5h8.7c0.7,0,1.4,0.4,1.8,1l3.7,6.7h1.1c1.2,0,2.2,0.8,2.2,2.4v7.4c0,1.2-1,2.2-2.2,2.2h-2.2"/>
	<polyline class="st0" points="178.5,351.8 197.1,351.8 197.1,379.1 180.7,379.1 	"/>
	<line class="st0" x1="172" y1="379.1" x2="166.5" y2="379.1"/>
	<path class="st0" d="M210.2,380.2c0,2.4-1.9,4.4-4.4,4.4c-2.4,0-4.4-1.9-4.4-4.4c0-2.4,1.9-4.4,4.4-4.4l0,0
		C208.2,375.9,210.2,377.8,210.2,380.2L210.2,380.2z"/>
	<path class="st0" d="M180.7,380.2c0,2.4-1.9,4.4-4.4,4.4c-2.4,0-4.4-1.9-4.4-4.4c0-2.4,1.9-4.4,4.4-4.4l0,0
		C178.8,375.9,180.7,377.8,180.7,380.2L180.7,380.2z"/>
	<line class="st0" x1="197.1" y1="379.1" x2="201.4" y2="379.1"/>
	<polyline class="st0" points="199.3,368.2 206.9,368.2 206.9,367.1 204.7,363.8 	"/>
	<line class="st0" x1="163.2" y1="364.9" x2="181.8" y2="364.9"/>
	<line class="st0" x1="172" y1="358.4" x2="188.3" y2="358.4"/>
</a>
<a>
	<title>step5</title>
	<path class="st10" d="M119.5,206.5c0-7.9,1.1-15.8,3.2-23.4l-42.5-47.9l-62.3,13.7c-23.6,77.2,2.4,161,65.5,211.4l6.2-63.2l59-25.8
		C130.2,254.8,119.6,231.2,119.5,206.5z"/>
	<g class="st2">
		<path class="st3" d="M16.5,205.3v-1.7c0-1.8,0.5-3.2,1.4-4.2s2.2-1.5,3.9-1.5s3,0.5,4,1.5c0.7,0.7,1.1,1.8,1.1,3.2h-2.5
			c0-1.5-0.8-2.3-2.4-2.3c-0.5,0-0.9,0.1-1.2,0.3c-0.3,0.2-0.6,0.4-0.8,0.6c-0.2,0.2-0.3,0.6-0.4,1.1s-0.1,0.9-0.2,1.2
			c0,0.3,0,0.8,0,1.3s0,0.9,0,1.1c0,0.2,0,0.5,0.1,0.9c0,0.4,0.1,0.7,0.2,0.9s0.2,0.4,0.3,0.7c0.1,0.3,0.3,0.5,0.5,0.6
			c0.5,0.3,1.1,0.5,1.8,0.5c1.1,0,1.9-0.5,2.4-1.4v-0.9H23V205h3.9v4.1c-0.4,0.9-1,1.6-1.9,2.1s-1.8,0.7-2.9,0.7
			c-1.9,0-3.3-0.5-4.2-1.6C17,209.1,16.5,207.5,16.5,205.3z"/>
		<path class="st3" d="M38.4,211.7h-4.8c-1.5,0-2.6-0.3-3.2-0.8s-0.9-1.5-0.9-2.8V198h9v2.4h-6.3v3.2h4.4l-0.2,2.4h-4.2v1.9
			c0,0.5,0.1,0.9,0.4,1.1c0.2,0.2,0.7,0.3,1.3,0.3h4.7v2.4H38.4z"/>
		<path class="st3" d="M49.8,200.4h-3.7v11.3h-2.7v-11.3h-3.7V198h10v2.4H49.8z"/>
		<path class="st3" d="M65.3,198l-4.1,8.1v5.6h-2.7v-5.6l-4.1-8.1h2.9l2.6,5.5l2.5-5.5H65.3z"/>
		<path class="st3" d="M76.8,204.2v1c0,2.3-0.4,4-1.3,5s-2.3,1.6-4.2,1.6s-3.3-0.5-4.1-1.6c-0.9-1-1.3-2.7-1.3-5.1v-1
			c0-2.1,0.4-3.7,1.3-4.8s2.2-1.6,4.1-1.6s3.3,0.5,4.1,1.6C76.3,200.5,76.8,202.1,76.8,204.2z M74.1,205.2v-0.7
			c0-1.2-0.2-2.2-0.5-2.9c-0.4-0.8-1.1-1.3-2.3-1.3c-1.2,0-2,0.4-2.3,1.3c-0.3,0.7-0.4,1.7-0.4,2.9v0.7c0,1.7,0.2,2.8,0.7,3.3
			c0.2,0.2,0.4,0.5,0.8,0.6c0.4,0.2,0.8,0.3,1.3,0.3s0.9-0.1,1.3-0.2c0.3-0.2,0.6-0.4,0.8-0.6c0.2-0.2,0.3-0.6,0.4-1
			C74,207,74.1,206.2,74.1,205.2z"/>
		<path class="st3" d="M89,198v9c0,1.5-0.5,2.7-1.5,3.5c-1,0.9-2.2,1.3-3.7,1.3s-2.7-0.4-3.7-1.3s-1.5-2-1.5-3.5v-9h2.7v8.9
			c0,0.8,0.2,1.5,0.7,1.9s1.1,0.6,1.9,0.6s1.4-0.2,1.9-0.6c0.5-0.4,0.7-1,0.7-1.9V198H89z"/>
		<path class="st3" d="M101.9,211.7h-3.1l-2.7-5.1h-1.9v5.1h-2.7V201c0-1,0.2-1.8,0.7-2.2c0.5-0.5,1.3-0.7,2.4-0.7h2.3
			c1.4,0,2.4,0.4,3.2,1.2c0.8,0.8,1.2,1.9,1.2,3.1c0,0.9-0.2,1.7-0.7,2.4s-1.1,1.1-1.8,1.4L101.9,211.7z M98.2,203.8
			c0.4-0.4,0.5-0.9,0.5-1.5s-0.2-1.1-0.5-1.4c-0.4-0.4-0.8-0.5-1.4-0.5h-1.3c-0.8,0-1.2,0.4-1.2,1.2v2.8h2.5
			C97.3,204.4,97.8,204.2,98.2,203.8z"/>
	</g>
	<g class="st2">
		<path class="st3" d="M35.2,232.1h-3.1l-2.7-5.1h-1.9v5.1h-2.7v-10.7c0-1,0.2-1.8,0.7-2.2c0.5-0.5,1.3-0.7,2.4-0.7h2.3
			c1.4,0,2.4,0.4,3.2,1.2s1.2,1.9,1.2,3.1c0,0.9-0.2,1.7-0.7,2.4s-1.1,1.1-1.8,1.4L35.2,232.1z M31.4,224.2c0.4-0.4,0.5-0.9,0.5-1.5
			s-0.2-1.1-0.5-1.4c-0.4-0.4-0.8-0.5-1.4-0.5h-1.3c-0.8,0-1.2,0.4-1.2,1.2v2.8H30C30.6,224.7,31,224.6,31.4,224.2z"/>
		<path class="st3" d="M46.2,232.1h-4.8c-1.5,0-2.6-0.3-3.2-0.8c-0.6-0.5-0.9-1.5-0.9-2.8v-10.1h9v2.4H40v3.2h4.4l-0.2,2.4H40v1.9
			c0,0.5,0.1,0.9,0.4,1.1c0.2,0.2,0.7,0.3,1.3,0.3h4.7v2.4H46.2z"/>
		<path class="st3" d="M57.3,219.5c0.8,0.8,1.2,1.9,1.2,3.5c0,1.5-0.4,2.7-1.2,3.5s-1.9,1.2-3.3,1.2h-2.6v4.4h-2.7v-13.7H54
			C55.4,218.4,56.5,218.8,57.3,219.5z M55.8,223c0-1.5-0.7-2.3-2-2.3h-2.5v4.5h2.5c0.6,0,1.1-0.2,1.5-0.5
			C55.6,224.4,55.8,223.8,55.8,223z"/>
		<path class="st3" d="M70.6,224.6v1c0,2.3-0.4,4-1.3,5s-2.3,1.6-4.2,1.6c-1.9,0-3.3-0.5-4.1-1.6c-0.9-1-1.3-2.7-1.3-5.1v-1
			c0-2.1,0.4-3.7,1.3-4.8s2.2-1.6,4.1-1.6c1.9,0,3.3,0.5,4.1,1.6C70.1,220.9,70.6,222.5,70.6,224.6z M67.9,225.6v-0.7
			c0-1.2-0.2-2.2-0.5-2.9c-0.4-0.8-1.1-1.3-2.3-1.3c-1.2,0-2,0.4-2.3,1.3c-0.3,0.7-0.4,1.7-0.4,2.9v0.7c0,1.7,0.2,2.8,0.7,3.3
			c0.2,0.2,0.4,0.5,0.8,0.6c0.4,0.2,0.8,0.3,1.3,0.3s0.9-0.1,1.3-0.2c0.3-0.2,0.6-0.4,0.8-0.6c0.2-0.2,0.3-0.6,0.4-1
			C67.8,227.3,67.9,226.5,67.9,225.6z"/>
		<path class="st3" d="M83.1,232.1H80l-2.7-5.1h-1.9v5.1h-2.7v-10.7c0-1,0.2-1.8,0.7-2.2c0.5-0.5,1.3-0.7,2.4-0.7h2.3
			c1.4,0,2.4,0.4,3.2,1.2c0.8,0.8,1.2,1.9,1.2,3.1c0,0.9-0.2,1.7-0.7,2.4s-1.1,1.1-1.8,1.4L83.1,232.1z M79.3,224.2
			c0.4-0.4,0.5-0.9,0.5-1.5s-0.2-1.1-0.5-1.4c-0.4-0.4-0.8-0.5-1.4-0.5h-1.3c-0.8,0-1.2,0.4-1.2,1.2v2.8h2.5
			C78.5,224.7,78.9,224.6,79.3,224.2z"/>
		<path class="st3" d="M94,220.7h-3.7V232h-2.7v-11.3H84v-2.4h10V220.7z"/>
		<path class="st3" d="M99.5,218.4l-0.6,8.3c-0.1,0.4-0.2,0.6-0.4,0.8c-0.2,0.2-0.4,0.3-0.7,0.3s-0.5-0.1-0.6-0.3
			c-0.2-0.2-0.3-0.5-0.3-0.8l-0.6-8.3H99.5z M99.3,229.5c0.2,0.2,0.3,0.6,0.3,1.3c0,0.6-0.1,1.1-0.3,1.3s-0.6,0.3-1.3,0.3
			c-0.6,0-1.1-0.1-1.3-0.3c-0.2-0.2-0.3-0.6-0.3-1.3c0-0.6,0.1-1.1,0.3-1.3c0.2-0.2,0.6-0.3,1.3-0.3
			C98.7,229.2,99.1,229.3,99.3,229.5z"/>
	</g>
	<line class="st0" x1="55.7" y1="275" x2="62.6" y2="275"/>
	<path class="st0" d="M88.2,279v4.9H64.6v-30.5c0-1.6-1.3-3-3-3s-3,1.3-3,3V272c0.1,1.6-1.2,3-2.8,3.1s-3-1.2-3.1-2.8
		c0-0.1,0-0.2,0-0.3v-25.6c0-1.6-1.3-3-3-3s-3,1.3-3,3v4.9h4"/>
	<path class="st0" d="M61.6,250.4h23.6c1.6,0,2.9,1.3,3,2.9v6.9"/>
	<path class="st0" d="M50.8,243.5h21.6c1.6,0,2.9,1.3,3,2.9v2"/>
	<circle class="st0" cx="81.3" cy="268.1" r="6.9"/>
	<line class="st0" x1="86.2" y1="273.1" x2="92.1" y2="279"/>
	<line class="st0" x1="68.5" y1="257.3" x2="82.3" y2="257.3"/>
	<line class="st0" x1="68.5" y1="261.2" x2="74.4" y2="261.2"/>
	<line class="st0" x1="68.5" y1="265.2" x2="72.5" y2="265.2"/>
	<line class="st0" x1="68.5" y1="269.1" x2="72.5" y2="269.1"/>
	<line class="st0" x1="68.5" y1="273.1" x2="73.4" y2="273.1"/>
	<line class="st0" x1="68.5" y1="277" x2="75.4" y2="277"/>
	<path class="st6" d="M63.2,149.6h14.9v4.4h-9.9v4.4c4.1,0,6.9,0.8,8.4,2.5s2.3,4.1,2.3,7.3c0,6.2-3,9.3-9,9.3
		c-2.8,0-4.8-0.7-6.2-2.2c-1.4-1.5-2.1-3.4-2.1-5.8h5c0,0.4,0.1,0.9,0.2,1.3c0.2,0.5,0.5,1,0.9,1.3c0.6,0.5,1.3,0.7,2,0.7
		c1.4,0,2.4-0.4,3.1-1.2c0.6-0.8,1-1.7,1-2.8c0-0.8-0.1-1.7-0.2-2.5c-0.2-0.7-0.5-1.3-0.9-1.9c-1-1.3-3.1-2-6.4-2h-3v-12.8H63.2z"/>
</a>
<a>
	<title>step1</title>
	<path class="st11" d="M202.1,120.7l32-54.4L202.2,12C122.5,13.2,51.7,63.1,23.8,137.8l61.3-13.5l42.1,47.5
		C140.3,141.8,169.4,121.9,202.1,120.7z"/>
	<path class="st6" d="M215,77.3h-5.3V54.5l-3.4-1.2v-3.8h4.6c1.7,0,2.8,0.3,3.3,0.9c0.5,0.6,0.8,1.9,0.8,3.7L215,77.3z"/>
	<g class="st2">
		<path class="st3" d="M108.5,69.7v-8.8h6.4v1h-5.2v2.7h4.9v1h-4.9v3h5.4v1L108.5,69.7L108.5,69.7z"/>
		<path class="st3" d="M120.7,68.9c-0.4,0.3-0.8,0.6-1.2,0.7s-0.8,0.2-1.2,0.2c-0.7,0-1.2-0.2-1.6-0.5s-0.6-0.8-0.6-1.3
			c0-0.3,0.1-0.6,0.2-0.9s0.3-0.5,0.6-0.6c0.2-0.2,0.5-0.3,0.8-0.4c0.2-0.1,0.5-0.1,1-0.2c0.9-0.1,1.5-0.2,1.9-0.4
			c0-0.1,0-0.2,0-0.3c0-0.4-0.1-0.7-0.3-0.9c-0.3-0.2-0.7-0.4-1.2-0.4s-0.9,0.1-1.1,0.3s-0.4,0.5-0.5,0.9l-1.1-0.1
			c0.1-0.5,0.3-0.8,0.5-1.1c0.2-0.3,0.5-0.5,1-0.6c0.4-0.1,0.9-0.2,1.4-0.2s1,0.1,1.3,0.2c0.3,0.1,0.6,0.3,0.7,0.5
			c0.2,0.2,0.3,0.4,0.3,0.7c0,0.2,0.1,0.5,0.1,1V67c0,1,0,1.6,0.1,1.9s0.1,0.5,0.3,0.8H121C120.8,69.5,120.7,69.2,120.7,68.9z
			 M120.6,66.5c-0.4,0.2-1,0.3-1.8,0.4c-0.4,0.1-0.8,0.1-0.9,0.2c-0.2,0.1-0.3,0.2-0.4,0.4c-0.1,0.2-0.1,0.3-0.1,0.5
			c0,0.3,0.1,0.5,0.3,0.7c0.2,0.2,0.5,0.3,1,0.3c0.4,0,0.8-0.1,1.1-0.3c0.3-0.2,0.6-0.4,0.7-0.7c0.1-0.2,0.2-0.6,0.2-1.1L120.6,66.5
			L120.6,66.5z"/>
	</g>
	<g class="st2">
		<path class="st3" d="M122,67.8l1.1-0.2c0.1,0.4,0.2,0.8,0.5,1s0.7,0.3,1.1,0.3c0.5,0,0.9-0.1,1.1-0.3c0.2-0.2,0.4-0.4,0.4-0.7
			c0-0.2-0.1-0.4-0.3-0.6c-0.1-0.1-0.5-0.2-1.1-0.4c-0.8-0.2-1.3-0.4-1.6-0.5c-0.3-0.1-0.5-0.3-0.7-0.6c-0.2-0.3-0.2-0.5-0.2-0.9
			c0-0.3,0.1-0.5,0.2-0.8c0.1-0.2,0.3-0.4,0.5-0.6c0.2-0.1,0.4-0.2,0.7-0.3c0.3-0.1,0.6-0.1,0.9-0.1c0.5,0,0.9,0.1,1.3,0.2
			c0.4,0.1,0.7,0.3,0.8,0.6c0.2,0.2,0.3,0.6,0.4,1L126,65c0-0.3-0.2-0.6-0.4-0.8c-0.2-0.2-0.6-0.3-1-0.3c-0.5,0-0.8,0.1-1.1,0.2
			c-0.2,0.2-0.3,0.4-0.3,0.6c0,0.1,0,0.3,0.1,0.4s0.2,0.2,0.4,0.3c0.1,0,0.4,0.1,1,0.3c0.8,0.2,1.3,0.4,1.6,0.5
			c0.3,0.1,0.5,0.3,0.7,0.6c0.2,0.2,0.3,0.6,0.3,0.9c0,0.4-0.1,0.7-0.3,1c-0.2,0.3-0.5,0.6-0.9,0.7c-0.4,0.2-0.8,0.3-1.3,0.3
			c-0.8,0-1.5-0.2-1.9-0.5C122.4,69,122.1,68.5,122,67.8z"/>
	</g>
	<g class="st2">
		<path class="st3" d="M128.5,72.1l-0.1-1c0.2,0.1,0.4,0.1,0.6,0.1c0.2,0,0.4,0,0.6-0.1c0.1-0.1,0.3-0.2,0.4-0.3
			c0.1-0.1,0.2-0.4,0.3-0.8c0-0.1,0.1-0.1,0.1-0.3l-2.4-6.4h1.2l1.3,3.7c0.2,0.5,0.3,1,0.5,1.5c0.1-0.5,0.3-1,0.4-1.4l1.4-3.7h1.1
			l-2.4,6.5c-0.3,0.7-0.5,1.2-0.6,1.4c-0.2,0.4-0.4,0.6-0.7,0.8c-0.2,0.2-0.5,0.2-0.9,0.2C128.9,72.3,128.7,72.2,128.5,72.1z"/>
	</g>
	<g class="st2">
		<path class="st3" d="M139.4,68.7l0.2,1c-0.3,0.1-0.6,0.1-0.8,0.1c-0.4,0-0.7-0.1-0.9-0.2s-0.4-0.3-0.5-0.5s-0.1-0.6-0.1-1.3v-3.7
			h-0.8v-0.8h0.8v-1.6l1.1-0.6v2.2h1.1v0.8h-1.1v3.7c0,0.3,0,0.5,0.1,0.6s0.1,0.2,0.2,0.2s0.2,0.1,0.4,0.1
			C139,68.8,139.2,68.8,139.4,68.7z"/>
	</g>
	<g class="st2">
		<path class="st3" d="M141.3,66.5c0-1.2,0.3-2.1,1-2.6c0.5-0.5,1.2-0.7,2-0.7c0.9,0,1.6,0.3,2.1,0.9c0.6,0.6,0.8,1.4,0.8,2.4
			c0,0.8-0.1,1.5-0.4,1.9s-0.6,0.8-1.1,1.1s-1,0.4-1.5,0.4c-0.9,0-1.6-0.3-2.2-0.9C141.6,68.4,141.3,67.6,141.3,66.5z M142.4,66.5
			c0,0.8,0.2,1.4,0.5,1.8c0.4,0.4,0.8,0.6,1.3,0.6s1-0.2,1.3-0.6s0.5-1,0.5-1.9c0-0.8-0.2-1.4-0.5-1.8s-0.8-0.6-1.3-0.6
			s-1,0.2-1.3,0.6S142.4,65.7,142.4,66.5z"/>
		<path class="st3" d="M152.2,69.7v-5.5h-1v-0.8h1v-0.7c0-0.4,0-0.7,0.1-1s0.3-0.5,0.5-0.7c0.3-0.2,0.6-0.3,1.1-0.3
			c0.3,0,0.6,0,1,0.1l-0.2,0.9c-0.2,0-0.4-0.1-0.6-0.1c-0.3,0-0.6,0.1-0.7,0.2c-0.1,0.1-0.2,0.4-0.2,0.8v0.6h1.2V64h-1.2v5.5h-1
			V69.7z"/>
		<path class="st3" d="M155.3,62.1v-1.2h1.1v1.2H155.3z M155.3,69.7v-6.4h1.1v6.4H155.3z"/>
		<path class="st3" d="M158,69.7v-6.4h1v0.9c0.5-0.7,1.1-1,2-1c0.4,0,0.7,0.1,1.1,0.2c0.3,0.1,0.6,0.3,0.7,0.5
			c0.2,0.2,0.3,0.5,0.3,0.8c0,0.2,0.1,0.5,0.1,1v3.9h-1.1v-3.9c0-0.4,0-0.8-0.1-1s-0.2-0.4-0.4-0.5s-0.5-0.2-0.8-0.2
			c-0.5,0-0.9,0.1-1.2,0.4s-0.5,0.8-0.5,1.7v3.5H158V69.7z"/>
		<path class="st3" d="M169,69.7v-0.8c-0.4,0.6-1,0.9-1.8,0.9c-0.5,0-1-0.1-1.4-0.4s-0.8-0.7-1-1.2s-0.4-1.1-0.4-1.7
			s0.1-1.2,0.3-1.7s0.5-0.9,1-1.2c0.4-0.3,0.9-0.4,1.4-0.4c0.4,0,0.7,0.1,1,0.2c0.3,0.2,0.5,0.4,0.7,0.6v-3.2h1.1v8.8L169,69.7
			L169,69.7z M165.6,66.5c0,0.8,0.2,1.4,0.5,1.8s0.7,0.6,1.2,0.6s0.9-0.2,1.2-0.6s0.5-1,0.5-1.8c0-0.9-0.2-1.5-0.5-1.9
			s-0.7-0.6-1.2-0.6s-0.9,0.2-1.2,0.6C165.7,65.1,165.6,65.7,165.6,66.5z"/>
		<path class="st3" d="M179.3,68.9c-0.4,0.3-0.8,0.6-1.2,0.7s-0.8,0.2-1.2,0.2c-0.7,0-1.2-0.2-1.6-0.5c-0.4-0.3-0.6-0.8-0.6-1.3
			c0-0.3,0.1-0.6,0.2-0.9c0.1-0.3,0.3-0.5,0.6-0.6c0.2-0.2,0.5-0.3,0.8-0.4c0.2-0.1,0.5-0.1,1-0.2c0.9-0.1,1.5-0.2,1.9-0.4
			c0-0.1,0-0.2,0-0.3c0-0.4-0.1-0.7-0.3-0.9c-0.3-0.2-0.7-0.4-1.2-0.4s-0.9,0.1-1.1,0.3s-0.4,0.5-0.5,0.9L175,65
			c0.1-0.5,0.3-0.8,0.5-1.1c0.2-0.3,0.5-0.5,1-0.6c0.4-0.1,0.9-0.2,1.4-0.2s1,0.1,1.3,0.2c0.3,0.1,0.6,0.3,0.7,0.5
			c0.2,0.2,0.3,0.4,0.3,0.7c0,0.2,0.1,0.5,0.1,1V67c0,1,0,1.6,0.1,1.9s0.1,0.5,0.3,0.8h-1.1C179.4,69.5,179.3,69.2,179.3,68.9z
			 M179.2,66.5c-0.4,0.2-1,0.3-1.8,0.4c-0.4,0.1-0.8,0.1-0.9,0.2c-0.2,0.1-0.3,0.2-0.4,0.4c-0.1,0.2-0.1,0.3-0.1,0.5
			c0,0.3,0.1,0.5,0.3,0.7s0.5,0.3,1,0.3c0.4,0,0.8-0.1,1.1-0.3c0.3-0.2,0.6-0.4,0.7-0.7c0.1-0.2,0.2-0.6,0.2-1.1v-0.4H179.2z"/>
		<path class="st3" d="M184.3,68.7l0.2,1c-0.3,0.1-0.6,0.1-0.8,0.1c-0.4,0-0.7-0.1-0.9-0.2s-0.4-0.3-0.5-0.5s-0.1-0.6-0.1-1.3v-3.7
			h-0.8v-0.8h0.8v-1.6l1.1-0.6v2.2h1.1v0.8h-1.1v3.7c0,0.3,0,0.5,0.1,0.6s0.1,0.2,0.2,0.2s0.2,0.1,0.4,0.1
			C183.9,68.8,184.1,68.8,184.3,68.7z"/>
	</g>
	<g class="st2">
		<path class="st3" d="M112.8,85.3l3.4-8.8h1.3l3.6,8.8h-1.3l-1-2.7H115l-1,2.7H112.8z M115.3,81.7h3l-0.9-2.4
			c-0.3-0.7-0.5-1.3-0.6-1.8c-0.1,0.6-0.3,1.1-0.5,1.7L115.3,81.7z"/>
		<path class="st3" d="M121.8,85.3v-6.4h1v0.9c0.2-0.3,0.5-0.6,0.8-0.8c0.3-0.2,0.7-0.3,1.1-0.3c0.5,0,0.9,0.1,1.2,0.3
			c0.3,0.2,0.5,0.5,0.6,0.8c0.5-0.7,1.2-1.1,2-1.1c0.6,0,1.1,0.2,1.5,0.5c0.3,0.3,0.5,0.9,0.5,1.6v4.4h-1.1v-4c0-0.4,0-0.7-0.1-0.9
			c-0.1-0.2-0.2-0.3-0.4-0.5c-0.2-0.1-0.4-0.2-0.6-0.2c-0.4,0-0.8,0.1-1.1,0.4c-0.3,0.3-0.4,0.8-0.4,1.4v3.7h-1.1V81
			c0-0.5-0.1-0.8-0.3-1.1s-0.5-0.4-0.9-0.4c-0.3,0-0.6,0.1-0.8,0.2c-0.3,0.2-0.4,0.4-0.6,0.7c-0.1,0.3-0.2,0.8-0.2,1.3V85h-1.1V85.3
			z"/>
		<path class="st3" d="M136.2,84.5c-0.4,0.3-0.8,0.6-1.2,0.7s-0.8,0.2-1.2,0.2c-0.7,0-1.2-0.2-1.6-0.5c-0.4-0.3-0.6-0.8-0.6-1.3
			c0-0.3,0.1-0.6,0.2-0.9c0.1-0.3,0.3-0.5,0.6-0.6c0.2-0.2,0.5-0.3,0.8-0.4c0.2-0.1,0.5-0.1,1-0.2c0.9-0.1,1.5-0.2,1.9-0.4
			c0-0.1,0-0.2,0-0.3c0-0.4-0.1-0.7-0.3-0.9c-0.3-0.2-0.7-0.4-1.2-0.4s-0.9,0.1-1.1,0.3s-0.4,0.5-0.5,0.9l-1.1-0.1
			c0.1-0.5,0.3-0.8,0.5-1.1c0.2-0.3,0.5-0.5,1-0.6c0.4-0.1,0.9-0.2,1.4-0.2s1,0.1,1.3,0.2s0.6,0.3,0.7,0.5s0.3,0.4,0.3,0.7
			c0,0.2,0.1,0.5,0.1,1v1.4c0,1,0,1.6,0.1,1.9s0.1,0.5,0.3,0.8h-1.1C136.3,85.1,136.2,84.8,136.2,84.5z M136.1,82.1
			c-0.4,0.2-1,0.3-1.8,0.4c-0.4,0.1-0.8,0.1-0.9,0.2c-0.2,0.1-0.3,0.2-0.4,0.4c-0.1,0.2-0.1,0.3-0.1,0.5c0,0.3,0.1,0.5,0.3,0.7
			s0.5,0.3,1,0.3c0.4,0,0.8-0.1,1.1-0.3c0.3-0.2,0.6-0.4,0.7-0.7c0.1-0.2,0.2-0.6,0.2-1.1v-0.4H136.1z"/>
		<path class="st3" d="M138.3,85.3v-0.9l4-4.6c-0.5,0-0.9,0-1.2,0h-2.6v-0.9h5.2v0.7l-3.4,4l-0.7,0.7c0.5,0,0.9-0.1,1.4-0.1h2.9v0.9
			h-5.6V85.3z"/>
		<path class="st3" d="M144.6,82.1c0-1.2,0.3-2.1,1-2.6c0.5-0.5,1.2-0.7,2-0.7c0.9,0,1.6,0.3,2.1,0.9c0.6,0.6,0.8,1.4,0.8,2.4
			c0,0.8-0.1,1.5-0.4,1.9s-0.6,0.8-1.1,1.1s-1,0.4-1.5,0.4c-0.9,0-1.6-0.3-2.2-0.9C144.9,84,144.6,83.2,144.6,82.1z M145.7,82.1
			c0,0.8,0.2,1.4,0.5,1.8c0.4,0.4,0.8,0.6,1.3,0.6s1-0.2,1.3-0.6s0.5-1,0.5-1.9c0-0.8-0.2-1.4-0.5-1.8s-0.8-0.6-1.3-0.6
			s-1,0.2-1.3,0.6S145.7,81.3,145.7,82.1z"/>
		<path class="st3" d="M151.8,85.3v-6.4h1v0.9c0.5-0.7,1.1-1,2-1c0.4,0,0.7,0.1,1.1,0.2c0.3,0.1,0.6,0.3,0.7,0.5s0.3,0.5,0.3,0.8
			c0,0.2,0.1,0.5,0.1,1v3.9h-1.1v-3.9c0-0.4,0-0.8-0.1-1s-0.2-0.4-0.4-0.5s-0.5-0.2-0.8-0.2c-0.5,0-0.9,0.1-1.2,0.4
			s-0.5,0.8-0.5,1.7v3.5L151.8,85.3L151.8,85.3z"/>
		<path class="st3" d="M166.2,84.5c-0.4,0.3-0.8,0.6-1.2,0.7s-0.8,0.2-1.2,0.2c-0.7,0-1.2-0.2-1.6-0.5c-0.4-0.3-0.6-0.8-0.6-1.3
			c0-0.3,0.1-0.6,0.2-0.9c0.1-0.3,0.3-0.5,0.6-0.6c0.2-0.2,0.5-0.3,0.8-0.4c0.2-0.1,0.5-0.1,1-0.2c0.9-0.1,1.5-0.2,1.9-0.4
			c0-0.1,0-0.2,0-0.3c0-0.4-0.1-0.7-0.3-0.9c-0.3-0.2-0.7-0.4-1.2-0.4s-0.9,0.1-1.1,0.3s-0.4,0.5-0.5,0.9l-1.1-0.1
			c0.1-0.5,0.3-0.8,0.5-1.1c0.2-0.3,0.5-0.5,1-0.6c0.4-0.1,0.9-0.2,1.4-0.2s1,0.1,1.3,0.2s0.6,0.3,0.7,0.5s0.3,0.4,0.3,0.7
			c0,0.2,0.1,0.5,0.1,1v1.4c0,1,0,1.6,0.1,1.9s0.1,0.5,0.3,0.8h-1.1C166.3,85.1,166.2,84.8,166.2,84.5z M166.1,82.1
			c-0.4,0.2-1,0.3-1.8,0.4c-0.4,0.1-0.8,0.1-0.9,0.2c-0.2,0.1-0.3,0.2-0.4,0.4c-0.1,0.2-0.1,0.3-0.1,0.5c0,0.3,0.1,0.5,0.3,0.7
			s0.5,0.3,1,0.3c0.4,0,0.8-0.1,1.1-0.3c0.3-0.2,0.6-0.4,0.7-0.7c0.1-0.2,0.2-0.6,0.2-1.1v-0.4H166.1z"/>
		<path class="st3" d="M168.9,85.3v-6.4h1v0.9c0.5-0.7,1.1-1,2-1c0.4,0,0.7,0.1,1.1,0.2c0.3,0.1,0.6,0.3,0.7,0.5s0.3,0.5,0.3,0.8
			c0,0.2,0.1,0.5,0.1,1v3.9H173v-3.9c0-0.4,0-0.8-0.1-1s-0.2-0.4-0.4-0.5s-0.5-0.2-0.8-0.2c-0.5,0-0.9,0.1-1.2,0.4s-0.5,1-0.5,1.8
			v3.5H168.9z"/>
		<path class="st3" d="M179.8,85.3v-0.8c-0.4,0.6-1,0.9-1.8,0.9c-0.5,0-1-0.1-1.4-0.4s-0.8-0.7-1-1.2s-0.4-1.1-0.4-1.7
			s0.1-1.2,0.3-1.7s0.5-0.9,1-1.2c0.4-0.3,0.9-0.4,1.4-0.4c0.4,0,0.7,0.1,1,0.2c0.3,0.2,0.5,0.4,0.7,0.6v-3.2h1.1v8.8L179.8,85.3
			L179.8,85.3z M176.4,82.1c0,0.8,0.2,1.4,0.5,1.8s0.7,0.6,1.2,0.6s0.9-0.2,1.2-0.6s0.5-1,0.5-1.8c0-0.9-0.2-1.5-0.5-1.9
			s-0.7-0.6-1.2-0.6s-0.9,0.2-1.2,0.6C176.6,80.7,176.4,81.3,176.4,82.1z"/>
	</g>
	<g class="st2">
		<path class="st3" d="M109.6,100.9v-8.8h1.1v8.8H109.6z"/>
	</g>
	<g class="st2">
		<path class="st3" d="M113.2,97.7c0-1.2,0.3-2.1,1-2.6c0.5-0.5,1.2-0.7,2-0.7c0.9,0,1.6,0.3,2.1,0.9c0.6,0.6,0.8,1.4,0.8,2.4
			c0,0.8-0.1,1.5-0.4,1.9s-0.6,0.8-1.1,1.1s-1,0.4-1.5,0.4c-0.9,0-1.6-0.3-2.2-0.9C113.5,99.6,113.2,98.8,113.2,97.7z M114.3,97.7
			c0,0.8,0.2,1.4,0.5,1.8c0.4,0.4,0.8,0.6,1.3,0.6s1-0.2,1.3-0.6s0.5-1,0.5-1.9c0-0.8-0.2-1.4-0.5-1.8s-0.8-0.6-1.3-0.6
			s-1,0.2-1.3,0.6S114.3,96.9,114.3,97.7z"/>
		<path class="st3" d="M124.6,98.6l1.1,0.1c-0.1,0.7-0.4,1.3-0.9,1.7c-0.5,0.4-1.1,0.6-1.8,0.6c-0.9,0-1.6-0.3-2.1-0.9
			s-0.8-1.4-0.8-2.4c0-0.7,0.1-1.3,0.3-1.8s0.6-0.9,1-1.2c0.5-0.3,1-0.4,1.5-0.4c0.7,0,1.3,0.2,1.7,0.5c0.4,0.3,0.7,0.8,0.8,1.5
			l-1,0.2c-0.1-0.4-0.3-0.7-0.5-1s-0.6-0.3-0.9-0.3c-0.5,0-1,0.2-1.3,0.6s-0.5,1-0.5,1.8c0,0.9,0.2,1.5,0.5,1.9s0.8,0.6,1.3,0.6
			c0.4,0,0.8-0.1,1.1-0.4C124.3,99.5,124.5,99.1,124.6,98.6z"/>
		<path class="st3" d="M130.7,100.1c-0.4,0.3-0.8,0.6-1.2,0.7s-0.8,0.2-1.2,0.2c-0.7,0-1.2-0.2-1.6-0.5s-0.6-0.8-0.6-1.3
			c0-0.3,0.1-0.6,0.2-0.9s0.3-0.5,0.6-0.6c0.2-0.2,0.5-0.3,0.8-0.4c0.2-0.1,0.5-0.1,1-0.2c0.9-0.1,1.5-0.2,1.9-0.4
			c0-0.1,0-0.2,0-0.3c0-0.4-0.1-0.7-0.3-0.9c-0.3-0.2-0.7-0.4-1.2-0.4s-0.9,0.1-1.1,0.3c-0.2,0.2-0.4,0.5-0.5,0.9l-1.1-0.1
			c0.1-0.5,0.3-0.8,0.5-1.1c0.2-0.3,0.5-0.5,1-0.6c0.4-0.1,0.9-0.2,1.4-0.2s1,0.1,1.3,0.2s0.6,0.3,0.7,0.5s0.3,0.4,0.3,0.7
			c0,0.2,0.1,0.5,0.1,1v1.4c0,1,0,1.6,0.1,1.9s0.1,0.5,0.3,0.8H131C130.8,100.7,130.7,100.4,130.7,100.1z M130.6,97.7
			c-0.4,0.2-1,0.3-1.8,0.4c-0.4,0.1-0.8,0.1-0.9,0.2c-0.2,0.1-0.3,0.2-0.4,0.4c-0.1,0.2-0.1,0.3-0.1,0.5c0,0.3,0.1,0.5,0.3,0.7
			c0.2,0.2,0.5,0.3,1,0.3c0.4,0,0.8-0.1,1.1-0.3c0.3-0.2,0.6-0.4,0.7-0.7c0.1-0.2,0.2-0.6,0.2-1.1v-0.4H130.6z"/>
		<path class="st3" d="M133.3,100.9v-8.8h1.1v8.8H133.3z"/>
	</g>
	<g class="st2">
		<path class="st3" d="M139.6,100.9v-6.4h1v1c0.2-0.5,0.5-0.7,0.7-0.9c0.2-0.1,0.4-0.2,0.7-0.2c0.4,0,0.7,0.1,1.1,0.3l-0.4,1
			c-0.3-0.2-0.5-0.2-0.8-0.2c-0.2,0-0.4,0.1-0.6,0.2c-0.2,0.1-0.3,0.3-0.4,0.6c-0.1,0.4-0.2,0.8-0.2,1.3v3.3
			C140.7,100.9,139.6,100.9,139.6,100.9z"/>
	</g>
	<g class="st2">
		<path class="st3" d="M149.6,98.9l1.1,0.1c-0.2,0.7-0.5,1.2-1,1.5c-0.5,0.4-1.1,0.5-1.8,0.5c-0.9,0-1.7-0.3-2.2-0.9
			s-0.8-1.4-0.8-2.4c0-1.1,0.3-1.9,0.8-2.5c0.6-0.6,1.3-0.9,2.1-0.9c0.9,0,1.5,0.3,2.1,0.9c0.5,0.6,0.8,1.4,0.8,2.4
			c0,0.1,0,0.2,0,0.3H146c0,0.7,0.2,1.2,0.6,1.6c0.4,0.4,0.8,0.6,1.3,0.6c0.4,0,0.7-0.1,1-0.3C149.2,99.7,149.4,99.3,149.6,98.9z
			 M146,97.1h3.6c0-0.5-0.2-0.9-0.4-1.2c-0.3-0.4-0.8-0.6-1.3-0.6s-0.9,0.2-1.2,0.5S146.1,96.6,146,97.1z"/>
	</g>
	<g class="st2">
		<path class="st3" d="M154.4,100l0.2,1c-0.3,0.1-0.6,0.1-0.8,0.1c-0.4,0-0.7-0.1-0.9-0.2s-0.4-0.3-0.5-0.5s-0.1-0.6-0.1-1.3v-3.7
			h-0.8v-0.8h0.8V93l1.1-0.6v2.2h1.1v0.8h-1.1v3.7c0,0.3,0,0.5,0.1,0.6s0.1,0.2,0.2,0.2s0.2,0.1,0.4,0.1
			C154,100,154.2,100,154.4,100z"/>
	</g>
	<g class="st2">
		<path class="st3" d="M160.8,100.1c-0.4,0.3-0.8,0.6-1.2,0.7s-0.8,0.2-1.2,0.2c-0.7,0-1.2-0.2-1.6-0.5c-0.4-0.3-0.6-0.8-0.6-1.3
			c0-0.3,0.1-0.6,0.2-0.9c0.1-0.3,0.3-0.5,0.6-0.6c0.2-0.2,0.5-0.3,0.8-0.4c0.2-0.1,0.5-0.1,1-0.2c0.9-0.1,1.5-0.2,1.9-0.4
			c0-0.1,0-0.2,0-0.3c0-0.4-0.1-0.7-0.3-0.9c-0.3-0.2-0.7-0.4-1.2-0.4s-0.9,0.1-1.1,0.3s-0.4,0.5-0.5,0.9l-1.1-0.1
			c0.1-0.5,0.3-0.8,0.5-1.1c0.2-0.3,0.5-0.5,1-0.6c0.4-0.1,0.9-0.2,1.4-0.2s1,0.1,1.3,0.2s0.6,0.3,0.7,0.5s0.3,0.4,0.3,0.7
			c0,0.2,0.1,0.5,0.1,1v1.4c0,1,0,1.6,0.1,1.9s0.1,0.5,0.3,0.8H161C160.9,100.7,160.9,100.4,160.8,100.1z M160.7,97.7
			c-0.4,0.2-1,0.3-1.8,0.4c-0.4,0.1-0.8,0.1-0.9,0.2c-0.2,0.1-0.3,0.2-0.4,0.4c-0.1,0.2-0.1,0.3-0.1,0.5c0,0.3,0.1,0.5,0.3,0.7
			s0.5,0.3,1,0.3c0.4,0,0.8-0.1,1.1-0.3c0.3-0.2,0.6-0.4,0.7-0.7c0.1-0.2,0.2-0.6,0.2-1.1v-0.4H160.7z"/>
		<path class="st3" d="M163.5,93.4v-1.2h1.1v1.2H163.5z M163.5,100.9v-6.4h1.1v6.4H163.5z"/>
	</g>
	<g class="st2">
		<path class="st3" d="M166.8,100.9v-8.8h1.1v8.8H166.8z"/>
	</g>
	<g class="st2">
		<path class="st3" d="M175.1,98.9l1.1,0.1c-0.2,0.7-0.5,1.2-1,1.5c-0.5,0.4-1.1,0.5-1.8,0.5c-0.9,0-1.7-0.3-2.2-0.9
			s-0.8-1.4-0.8-2.4c0-1.1,0.3-1.9,0.8-2.5c0.6-0.6,1.3-0.9,2.1-0.9c0.9,0,1.5,0.3,2.1,0.9c0.5,0.6,0.8,1.4,0.8,2.4
			c0,0.1,0,0.2,0,0.3h-4.7c0,0.7,0.2,1.2,0.6,1.6c0.4,0.4,0.8,0.6,1.3,0.6c0.4,0,0.7-0.1,1-0.3C174.7,99.7,174.9,99.3,175.1,98.9z
			 M171.6,97.1h3.6c0-0.5-0.2-0.9-0.4-1.2c-0.3-0.4-0.8-0.6-1.3-0.6s-0.9,0.2-1.2,0.5S171.6,96.6,171.6,97.1z"/>
	</g>
	<g class="st2">
		<path class="st3" d="M177.6,100.9v-6.4h1v1c0.2-0.5,0.5-0.7,0.7-0.9c0.2-0.1,0.4-0.2,0.7-0.2c0.4,0,0.7,0.1,1.1,0.3l-0.4,1
			c-0.3-0.2-0.5-0.2-0.8-0.2c-0.2,0-0.4,0.1-0.6,0.2c-0.2,0.1-0.3,0.3-0.4,0.6c-0.1,0.4-0.2,0.8-0.2,1.3v3.3
			C178.7,100.9,177.6,100.9,177.6,100.9z"/>
	</g>
	<g class="st2">
		<path class="st3" d="M182.8,100.9v-1.2h1.2v1.2H182.8z"/>
	</g>
	<path class="st11" d="M202.1,120.7l32-54.4L202.2,12C122.5,13.2,51.7,63.1,23.8,137.8l61.3-13.5l42.1,47.5
		C140.3,141.8,169.4,121.9,202.1,120.7z"/>
	<g class="st2">
		<path class="st3" d="M130.9,60.5c0,1.5-0.4,2.6-1.2,3.4s-1.9,1.2-3.3,1.2h-2.1c-1.8,0-3-0.3-3.7-0.9s-1.1-1.7-1.1-3.2V49.2h6.7
			c1.5,0,2.7,0.4,3.4,1.1c0.8,0.8,1.1,1.8,1.1,3.2c0,0.8-0.2,1.5-0.6,2.1c-0.4,0.6-0.9,1-1.3,1.2C130.2,57.4,130.9,58.7,130.9,60.5z
			 M125.8,55.4c1.1,0,1.7-0.6,1.7-1.7c0-1.1-0.6-1.7-1.7-1.7h-3.4v3.4H125.8z M127.8,60.3c0-0.7-0.1-1.3-0.4-1.6
			c-0.3-0.4-0.7-0.5-1.4-0.5h-3.6v2.5c0,0.6,0.2,1,0.5,1.3c0.3,0.2,0.8,0.4,1.5,0.4h1.6C127.2,62.3,127.8,61.6,127.8,60.3z"/>
		<path class="st3" d="M145.7,49.2v10.4c0,1.7-0.6,3.1-1.8,4.1s-2.6,1.5-4.3,1.5s-3.1-0.5-4.3-1.5s-1.8-2.4-1.8-4.1V49.2h3.1v10.3
			c0,1,0.3,1.7,0.8,2.2s1.3,0.7,2.2,0.7s1.6-0.2,2.2-0.7c0.5-0.5,0.8-1.2,0.8-2.2V49.2H145.7z"/>
		<path class="st3" d="M159.8,49.2l-4.8,9.4V65h-3.1v-6.5l-4.8-9.4h3.4l3,6.4l2.9-6.4h3.4V49.2z"/>
	</g>
	<g class="st2">
		<path class="st3" d="M91.5,76.6c0,0.8-0.3,1.4-0.9,1.9c-0.6,0.4-1.3,0.7-2.2,0.7c-0.7,0-1.4-0.2-2.1-0.6c-0.3-0.2-0.6-0.5-0.8-0.9
			c-0.2-0.4-0.3-0.8-0.3-1.3l1.5-0.1c0,0.4,0.2,0.7,0.5,1c0.4,0.2,0.8,0.4,1.2,0.4c1,0,1.5-0.3,1.5-1c0-0.6-0.3-0.9-1-1l-1.4-0.1
			c-0.7-0.1-1.2-0.3-1.6-0.7c-0.4-0.4-0.6-0.9-0.6-1.7c0-0.7,0.3-1.3,0.9-1.8s1.3-0.7,2.2-0.7c0.9,0,1.6,0.2,2.1,0.7
			c0.5,0.4,0.8,1,0.8,1.7l-1.5,0.1c-0.1-0.7-0.6-1-1.4-1c-0.5,0-0.8,0.1-1.1,0.3c-0.3,0.2-0.4,0.4-0.4,0.7c0,0.3,0.1,0.5,0.3,0.7
			s0.4,0.3,0.7,0.3l1.3,0.1C90.7,74.4,91.5,75.2,91.5,76.6z"/>
		<path class="st3" d="M97.7,76.1h-3.9c0,0.6,0.1,1.1,0.3,1.3s0.6,0.4,1.2,0.4c0.4,0,0.7-0.1,0.8-0.4c0.2-0.2,0.3-0.5,0.3-0.7h1.4
			c0,0.8-0.2,1.4-0.7,1.8c-0.4,0.4-1,0.6-1.8,0.6S94,79,93.6,78.8c-0.8-0.4-1.3-1.6-1.3-3.4c0-1.1,0.2-1.9,0.7-2.4s1.2-0.8,2.2-0.8
			c1.7,0,2.5,0.9,2.5,2.8C97.7,75.4,97.7,75.7,97.7,76.1z M93.8,75.1h2.5c0-0.5-0.1-0.9-0.3-1.1c-0.2-0.2-0.5-0.4-0.9-0.4
			s-0.7,0.1-1,0.4C93.9,74.2,93.8,74.6,93.8,75.1z"/>
		<path class="st3" d="M102.5,76.6h1.4c0,0.1,0,0.2,0,0.3c0,0.2,0,0.3,0,0.3s0,0.2,0,0.3s0,0.2-0.1,0.3c0,0.1,0,0.1-0.1,0.2
			c-0.1,0.4-0.5,0.7-1.1,1c-0.4,0.1-0.8,0.2-1.2,0.2c-0.4,0-0.8-0.1-1.2-0.2c-0.4-0.1-0.6-0.3-0.8-0.5c-0.5-0.5-0.7-1.4-0.7-2.7
			c0-1.3,0.2-2.2,0.7-2.7c0.2-0.2,0.5-0.4,0.8-0.5c0.4-0.1,0.7-0.2,1.2-0.2c0.8,0,1.5,0.2,1.9,0.6s0.7,1,0.7,1.8h-1.4
			c0-0.3-0.1-0.6-0.3-0.8c-0.2-0.2-0.5-0.3-1-0.3s-0.8,0.1-0.9,0.4c-0.2,0.3-0.2,0.7-0.2,1.3V76c0,0.9,0.2,1.5,0.5,1.7
			c0.2,0.1,0.4,0.2,0.6,0.2s0.5,0,0.6-0.1s0.3-0.1,0.4-0.3s0.1-0.2,0.1-0.4C102.5,77.1,102.5,76.9,102.5,76.6z"/>
		<path class="st3" d="M110.3,75.7c0,1.4-0.3,2.4-0.8,2.9c-0.5,0.4-1.1,0.6-2,0.6c-1.1,0-1.9-0.3-2.3-1c-0.4-0.6-0.6-1.5-0.6-2.6
			c0-1,0.2-1.8,0.6-2.4c0.4-0.7,1.1-1,2.2-1s1.8,0.3,2.2,0.9C110.1,73.7,110.3,74.6,110.3,75.7z M108.8,76.1v-0.6
			c0-0.6-0.1-1-0.3-1.3c-0.2-0.3-0.5-0.5-1-0.5c-0.9,0-1.3,0.6-1.3,1.7V76c0,1.2,0.4,1.9,1.3,1.9c0.6,0,0.9-0.2,1.1-0.6
			C108.7,76.9,108.8,76.5,108.8,76.1z"/>
		<path class="st3" d="M116.7,79.1h-1.5v-4.3c0-0.4-0.1-0.6-0.2-0.8c-0.2-0.1-0.4-0.2-0.7-0.2l-1.4,0.6v4.7h-1.5v-6.7h1.1l0.4,0.8
			l1.9-0.9c0.5,0,1,0.2,1.4,0.6s0.6,1,0.6,1.7v4.5H116.7z"/>
		<path class="st3" d="M123.1,79.1h-1l-0.5-0.8l-1.6,0.9c-0.9,0-1.5-0.3-1.8-1c-0.2-0.3-0.3-0.7-0.3-1c-0.1-0.4-0.1-0.8-0.1-1.2
			c0-0.4,0-0.7,0-0.9c0-0.2,0-0.4,0.1-0.7s0.1-0.5,0.1-0.6s0.1-0.3,0.3-0.5c0.1-0.2,0.2-0.3,0.4-0.4c0.4-0.2,0.8-0.4,1.4-0.4h1.6
			v-2.2h1.5L123.1,79.1L123.1,79.1z M121.6,77v-3.1h-1.2c-0.4,0-0.7,0.2-0.9,0.5s-0.3,0.8-0.3,1.5s0.1,1.1,0.2,1.4
			c0.2,0.3,0.5,0.4,0.9,0.4L121.6,77z"/>
		<path class="st3" d="M130.1,79.1h-2.5c-0.9,0-1.6-0.2-2-0.5c-0.4-0.4-0.6-1-0.6-1.8v-6h1.6v6c0,0.3,0.1,0.6,0.2,0.7
			s0.4,0.2,0.8,0.2h2.5V79.1z"/>
		<path class="st3" d="M136.4,75.7c0,1.4-0.3,2.4-0.8,2.9c-0.5,0.4-1.1,0.6-2,0.6c-1.1,0-1.9-0.3-2.3-1c-0.4-0.6-0.6-1.5-0.6-2.6
			c0-1,0.2-1.8,0.6-2.4c0.4-0.7,1.1-1,2.2-1c1.1,0,1.8,0.3,2.2,0.9C136.2,73.7,136.4,74.6,136.4,75.7z M134.9,76.1v-0.6
			c0-0.6-0.1-1-0.3-1.3s-0.5-0.5-1-0.5c-0.9,0-1.3,0.6-1.3,1.7V76c0,1.2,0.4,1.9,1.3,1.9c0.6,0,0.9-0.2,1.1-0.6
			C134.8,76.9,134.9,76.5,134.9,76.1z"/>
		<path class="st3" d="M142.7,75.7c0,1.4-0.3,2.4-0.8,2.9c-0.5,0.4-1.1,0.6-2,0.6c-1.1,0-1.9-0.3-2.3-1c-0.4-0.6-0.6-1.5-0.6-2.6
			c0-1,0.2-1.8,0.6-2.4c0.4-0.7,1.1-1,2.2-1c1.1,0,1.8,0.3,2.2,0.9C142.5,73.7,142.7,74.6,142.7,75.7z M141.2,76.1v-0.6
			c0-0.6-0.1-1-0.3-1.3s-0.5-0.5-1-0.5c-0.9,0-1.3,0.6-1.3,1.7V76c0,1.2,0.4,1.9,1.3,1.9c0.6,0,0.9-0.2,1.1-0.6
			C141.2,76.9,141.2,76.5,141.2,76.1z"/>
		<path class="st3" d="M149.7,79.1h-1.8l-1.8-2.4l-0.7,0.9V79h-1.5v-8.8h1.5v5.6l2.1-3.2h1.7l-2.2,3L149.7,79.1z"/>
		<path class="st3" d="M152.1,77.5c0.1,0.1,0.2,0.4,0.2,0.8s-0.1,0.6-0.2,0.8s-0.4,0.2-0.8,0.2c-0.4,0-0.6-0.1-0.8-0.2
			c-0.1-0.1-0.2-0.4-0.2-0.8s0.1-0.6,0.2-0.8c0.1-0.1,0.4-0.2,0.8-0.2C151.7,77.3,152,77.4,152.1,77.5z"/>
		<path class="st3" d="M159.2,79.1h-2.5c-0.9,0-1.6-0.2-2-0.5c-0.4-0.4-0.6-1-0.6-1.8v-6h1.6v6c0,0.3,0.1,0.6,0.2,0.7
			c0.1,0.1,0.4,0.2,0.8,0.2h2.5V79.1z"/>
		<path class="st3" d="M161.2,69.9c0.4,0,0.6,0.1,0.7,0.2c0.1,0.1,0.2,0.4,0.2,0.7c0,0.4-0.1,0.6-0.2,0.7s-0.4,0.2-0.7,0.2
			c-0.4,0-0.6-0.1-0.7-0.2c-0.1-0.1-0.2-0.4-0.2-0.7c0-0.4,0.1-0.6,0.2-0.7C160.6,69.9,160.8,69.9,161.2,69.9z M161.9,79.1h-1.5
			v-6.4h1.5V79.1z"/>
		<path class="st3" d="M166.5,73.8h-1.2v5.3h-1.5v-5.3h-0.6v-1.2h0.6V72c0-0.5,0.2-0.9,0.5-1.2c0.3-0.3,0.7-0.5,1.3-0.5h1v1.3h-0.7
			c-0.4,0-0.5,0.2-0.5,0.6v0.6h1.2v1H166.5z"/>
		<path class="st3" d="M172.6,76.1h-3.9c0,0.6,0.1,1.1,0.3,1.3s0.6,0.4,1.2,0.4c0.4,0,0.7-0.1,0.8-0.4c0.2-0.2,0.3-0.5,0.3-0.7h1.4
			c0,0.8-0.2,1.4-0.7,1.8c-0.4,0.4-1,0.6-1.8,0.6s-1.3-0.1-1.7-0.3c-0.8-0.4-1.3-1.6-1.3-3.4c0-1.1,0.2-1.9,0.7-2.4s1.2-0.8,2.2-0.8
			c1.7,0,2.5,0.9,2.5,2.8C172.7,75.4,172.7,75.7,172.6,76.1z M168.8,75.1h2.5c0-0.5-0.1-0.9-0.3-1.1s-0.5-0.4-0.9-0.4
			s-0.7,0.1-1,0.4C168.9,74.2,168.8,74.6,168.8,75.1z"/>
		<path class="st3" d="M179.6,79.1h-1.3c-0.6,0-1-0.2-1.3-0.5s-0.5-0.8-0.5-1.2v-7.1h1.5v3l1.8-0.8c0.7,0,1.2,0.2,1.5,0.6
			c0.3,0.3,0.5,0.9,0.5,1.6c0,0.3,0,0.7,0,1.2C182,78,181.2,79.1,179.6,79.1z M178.4,77.8h0.7c0.8,0,1.3-0.7,1.3-2
			c0-0.7-0.1-1.2-0.2-1.5c-0.1-0.3-0.4-0.4-0.8-0.4l-1.4,0.7v2.6C178,77.6,178.2,77.7,178.4,77.8z"/>
		<path class="st3" d="M188.5,75.7c0,1.4-0.3,2.4-0.8,2.9c-0.5,0.4-1.1,0.6-2,0.6c-1.1,0-1.9-0.3-2.3-1c-0.4-0.6-0.6-1.5-0.6-2.6
			c0-1,0.2-1.8,0.6-2.4c0.4-0.7,1.1-1,2.2-1c1.1,0,1.8,0.3,2.2,0.9C188.3,73.7,188.5,74.6,188.5,75.7z M186.9,76.1v-0.6
			c0-0.6-0.1-1-0.3-1.3s-0.5-0.5-1-0.5c-0.9,0-1.3,0.6-1.3,1.7V76c0,1.2,0.4,1.9,1.3,1.9c0.6,0,0.9-0.2,1.1-0.6
			C186.9,76.9,186.9,76.5,186.9,76.1z"/>
		<path class="st3" d="M194.8,79.1h-1.7l-1.2-2l-1.1,2H189l2.2-3.4l-2.1-3.3h1.7l1.2,1.9l1.1-1.9h1.7l-2.1,3.3L194.8,79.1z"/>
	</g>
	<path class="st0" d="M128.9,95.4h27.4c1,0,1.8,0.8,1.8,1.8c0,0.2,0,0.3-0.1,0.5l-4,13.2c-0.2,0.7-0.9,1.2-1.7,1.2h-21.6"/>
	<path class="st0" d="M153.6,118.3h-18.9c-0.8,0-1.5-0.5-1.7-1.3l-7.6-25.1h-7.9"/>
	<circle class="st0" cx="133.3" cy="123.6" r="2.6"/>
	<circle class="st0" cx="151" cy="123.6" r="2.6"/>
	<path class="st6" d="M215,77.3h-5.3V54.5l-3.4-1.2v-3.8h4.6c1.7,0,2.8,0.3,3.3,0.9c0.5,0.6,0.8,1.9,0.8,3.7L215,77.3z"/>
</a>
<g>
	<path class="st3" d="M230.9,251.9l-12.1-12.1c-0.7-0.7-1.9-0.7-2.7,0c-0.7,0.7-0.7,1.9,0,2.7l8.9,8.9h-32.3c-1,0-1.9,0.8-1.9,1.9
		c0,1,0.8,1.9,1.9,1.9H225l-8.9,8.9c-0.7,0.7-0.7,1.9,0,2.7c0.4,0.4,0.9,0.6,1.3,0.6c0.5,0,1-0.2,1.3-0.6l12.1-12.1
		C231.6,253.8,231.6,252.7,230.9,251.9z"/>
</g>
</svg>
